<svg width="224" height="48" viewBox="0 0 224 48" fill="none" xmlns="http://www.w3.org/2000/svg">
<path d="M60.346 22.8789H71.723C71.785 23.5816 71.816 24.1809 71.816 24.6769C71.816 26.1856 71.5577 27.6013 71.041 28.9239C70.5243 30.2466 69.7907 31.4039 68.84 32.3959C67.8893 33.3673 66.763 34.1216 65.461 34.6589C64.159 35.1963 62.764 35.4649 61.276 35.4649C60.5527 35.4649 59.726 35.3719 58.796 35.1859C57.866 34.9999 56.9257 34.6589 55.975 34.1629C55.045 33.6669 54.1977 33.0573 53.433 32.3339C52.689 31.5899 52.0587 30.7529 51.542 29.8229C51.046 28.8929 50.705 27.9733 50.519 27.0639C50.333 26.1339 50.24 25.3176 50.24 24.6149C50.24 23.1476 50.519 21.7526 51.077 20.4299C51.635 19.0866 52.41 17.9189 53.402 16.9269C54.4147 15.9349 55.5823 15.1599 56.905 14.6019C58.2483 14.0439 59.664 13.7649 61.152 13.7649C61.958 13.7649 62.826 13.8579 63.756 14.0439C64.7067 14.2093 65.647 14.5193 66.577 14.9739C67.507 15.4286 68.3853 16.0693 69.212 16.8959C70.0387 17.7226 70.6793 18.7663 71.134 20.0269L67.352 21.3599C66.0913 18.9419 64.0247 17.7329 61.152 17.7329C60.2427 17.7329 59.3747 17.9086 58.548 18.2599C57.742 18.6113 57.0393 19.0969 56.44 19.7169C55.8407 20.3369 55.3653 21.0706 55.014 21.9179C54.6833 22.7653 54.518 23.6643 54.518 24.6149C54.518 25.5656 54.6937 26.4749 55.045 27.3429C55.3963 28.1903 55.882 28.9239 56.502 29.5439C57.1427 30.1639 57.8867 30.6496 58.734 31.0009C59.5813 31.3523 60.47 31.5279 61.4 31.5279C62.9707 31.5279 64.314 31.0939 65.43 30.2259C66.546 29.3579 67.2797 28.1903 67.631 26.7229H60.346V22.8789Z" fill="#333243"/>
<path d="M90.8614 19.4999L81.8714 40.2699H77.3144L79.7944 34.5039L73.3774 19.4999H77.9344L82.0264 29.3889L86.3044 19.4999H90.8614Z" fill="#333243"/>
<path d="M112.778 19.0659C113.563 19.0659 114.318 19.2209 115.041 19.5309C115.785 19.8203 116.436 20.2439 116.994 20.8019C117.552 21.3599 117.986 22.0316 118.296 22.8169C118.627 23.5816 118.792 24.4186 118.792 25.3279V34.9999H114.731V26.1649C114.731 25.6896 114.628 25.1936 114.421 24.6769C114.235 24.1396 113.884 23.6953 113.367 23.3439C112.871 22.9926 112.313 22.8169 111.693 22.8169C110.577 22.8169 109.699 23.2199 109.058 24.0259C108.417 24.8113 108.097 25.9893 108.097 27.5599V34.9999H104.005V26.1649C104.005 25.6896 103.902 25.1936 103.695 24.6769C103.509 24.1396 103.158 23.6953 102.641 23.3439C102.145 22.9926 101.587 22.8169 100.967 22.8169C99.8509 22.8169 98.9829 23.2199 98.3629 24.0259C97.7429 24.8113 97.4329 25.9893 97.4329 27.5599V34.9999H93.3409V19.5309H97.4329V20.8019C98.5902 19.6446 100.13 19.0659 102.052 19.0659C103.085 19.0659 104.057 19.2933 104.966 19.7479C105.875 20.1819 106.599 20.8019 107.136 21.6079C107.777 20.8019 108.572 20.1819 109.523 19.7479C110.494 19.2933 111.579 19.0659 112.778 19.0659Z" fill="#333243"/>
<path d="M141.119 14.2299V34.9999H136.903V26.4749H126.983V34.9999H122.767V14.2299H126.983V22.6619H136.903V14.2299H141.119Z" fill="#333243"/>
<path d="M160.073 26.9709V28.3659H148.293C148.396 28.8826 148.592 29.4303 148.882 30.0089C149.192 30.5669 149.646 31.0319 150.246 31.4039C150.845 31.7759 151.486 31.9619 152.168 31.9619C153.18 31.9619 153.976 31.7863 154.555 31.4349C155.154 31.0629 155.64 30.5566 156.012 29.9159L159.67 30.6909C159.008 32.2616 158.016 33.4499 156.694 34.2559C155.392 35.0619 153.883 35.4649 152.168 35.4649C151.093 35.4649 150.07 35.2686 149.099 34.8759C148.127 34.4833 147.28 33.9253 146.557 33.2019C145.833 32.4579 145.265 31.5796 144.852 30.5669C144.438 29.5543 144.232 28.4589 144.232 27.2809C144.232 26.1029 144.438 25.0076 144.852 23.9949C145.265 22.9823 145.833 22.1143 146.557 21.3909C147.301 20.6469 148.158 20.0786 149.13 19.6859C150.122 19.2726 151.155 19.0659 152.23 19.0659C153.242 19.0659 154.214 19.2623 155.144 19.6549C156.094 20.0269 156.931 20.5643 157.655 21.2669C158.378 21.9696 158.946 22.8169 159.36 23.8089C159.794 24.7803 160.031 25.8343 160.073 26.9709ZM152.23 22.6309C151.63 22.6309 151.031 22.7756 150.432 23.0649C149.853 23.3336 149.398 23.6953 149.068 24.1499C148.737 24.6046 148.52 25.0489 148.417 25.4829H155.888C155.64 24.5529 155.175 23.8503 154.493 23.3749C153.831 22.8789 153.077 22.6309 152.23 22.6309Z" fill="#333243"/>
<path d="M178.744 19.5309V34.9999H174.652V33.7909C173.267 34.9069 171.562 35.4649 169.537 35.4649C168.565 35.4649 167.615 35.2686 166.685 34.8759C165.775 34.4833 164.959 33.9253 164.236 33.2019C163.533 32.4579 162.975 31.5796 162.562 30.5669C162.148 29.5336 161.942 28.4383 161.942 27.2809C161.942 26.4129 162.076 25.5139 162.345 24.5839C162.634 23.6333 163.14 22.7033 163.864 21.7939C164.608 20.8846 165.496 20.2026 166.53 19.7479C167.563 19.2933 168.565 19.0659 169.537 19.0659C171.583 19.0659 173.288 19.6343 174.652 20.7709V19.5309H178.744ZM170.25 31.8999C170.766 31.8999 171.304 31.7863 171.862 31.5589C172.42 31.3316 172.895 31.0216 173.288 30.6289C173.701 30.2363 174.032 29.7506 174.28 29.1719C174.528 28.5933 174.652 27.9629 174.652 27.2809C174.652 26.2683 174.393 25.3899 173.877 24.6459C173.36 23.8813 172.75 23.3543 172.048 23.0649C171.366 22.7756 170.766 22.6309 170.25 22.6309C168.989 22.6309 167.945 23.0546 167.119 23.9019C166.313 24.7493 165.91 25.8756 165.91 27.2809C165.91 28.1489 166.085 28.9549 166.437 29.6989C166.809 30.4223 167.346 30.9699 168.049 31.3419C168.751 31.7139 169.485 31.8999 170.25 31.8999Z" fill="#333243"/>
<path d="M187.163 34.9999H183.071V12.6799H187.163V34.9999Z" fill="#333243"/>
<path d="M201.593 30.9079L202.771 34.3179C202.192 34.6279 201.582 34.8966 200.942 35.1239C200.301 35.3513 199.567 35.4649 198.741 35.4649C196.86 35.4649 195.372 34.9483 194.277 33.9149C193.202 32.8816 192.665 31.3419 192.665 29.2959V22.8789H189.348V19.5309H192.665V14.8499H196.757V19.5309H201.81V22.8789H196.757V28.9859C196.757 29.8746 196.953 30.5463 197.346 31.0009C197.759 31.4349 198.317 31.6519 199.02 31.6519C199.35 31.6519 199.764 31.5796 200.26 31.4349C200.776 31.2903 201.221 31.1146 201.593 30.9079Z" fill="#333243"/>
<path d="M213.918 19.0659C215.757 19.0659 217.245 19.6756 218.382 20.8949C219.539 22.0936 220.118 23.6539 220.118 25.5759V34.9999H216.026V26.4439C216.026 25.3693 215.737 24.5013 215.158 23.8399C214.579 23.1579 213.825 22.8169 212.895 22.8169C211.676 22.8169 210.725 23.2509 210.043 24.1189C209.382 24.9869 209.051 26.3303 209.051 28.1489V34.9999H204.959V12.6799H209.051V20.9259C210.291 19.6859 211.913 19.0659 213.918 19.0659Z" fill="#333243"/>
<path fill-rule="evenodd" clip-rule="evenodd" d="M19.1055 13.1411C17.2169 10.1619 13.8712 8.26757 10.1656 8.4676C4.94501 8.74942 1.12933 13.0862 0.689582 18.328C0.643929 18.8721 0.620641 19.4227 0.620641 19.9787C0.620641 23.3387 1.47121 26.5001 2.96878 29.2594L5.08058 27.1476C5.08418 27.1501 5.08779 27.1526 5.0914 27.1552L19.1055 13.1411Z" fill="#E00051"/>
<path d="M20.1055 39.4628C30.8668 39.4628 39.5905 30.7394 39.5905 19.9786C39.5905 16.4966 38.6771 13.2279 37.0768 10.3991L10.5262 36.9495C13.355 38.5495 16.6236 39.4628 20.1055 39.4628Z" fill="#E00051"/>
</svg>
