<svg width="171" height="29" viewBox="0 0 171 29" fill="none" xmlns="http://www.w3.org/2000/svg">
<path d="M10.346 10.8789H21.723C21.785 11.5816 21.816 12.1809 21.816 12.6769C21.816 14.1856 21.5577 15.6013 21.041 16.9239C20.5243 18.2466 19.7907 19.4039 18.84 20.3959C17.8893 21.3673 16.763 22.1216 15.461 22.6589C14.159 23.1963 12.764 23.4649 11.276 23.4649C10.5527 23.4649 9.72599 23.3719 8.79599 23.1859C7.86599 22.9999 6.92566 22.6589 5.97499 22.1629C5.04499 21.6669 4.19766 21.0573 3.43299 20.3339C2.68899 19.5899 2.05866 18.7529 1.54199 17.8229C1.04599 16.8929 0.70499 15.9733 0.51899 15.0639C0.33299 14.1339 0.23999 13.3176 0.23999 12.6149C0.23999 11.1476 0.51899 9.7526 1.07699 8.42993C1.63499 7.0866 2.40999 5.91893 3.40199 4.92693C4.41466 3.93493 5.58232 3.15993 6.90499 2.60193C8.24832 2.04393 9.66399 1.76493 11.152 1.76493C11.958 1.76493 12.826 1.85793 13.756 2.04393C14.7067 2.20926 15.647 2.51926 16.577 2.97393C17.507 3.4286 18.3853 4.06926 19.212 4.89593C20.0387 5.7226 20.6793 6.76627 21.134 8.02693L17.352 9.35993C16.0913 6.94193 14.0247 5.73293 11.152 5.73293C10.2427 5.73293 9.37466 5.9086 8.54799 6.25993C7.74199 6.61127 7.03932 7.09693 6.43999 7.71693C5.84066 8.33693 5.36532 9.0706 5.01399 9.91793C4.68332 10.7653 4.51799 11.6643 4.51799 12.6149C4.51799 13.5656 4.69366 14.4749 5.04499 15.3429C5.39632 16.1903 5.88199 16.9239 6.50199 17.5439C7.14266 18.1639 7.88666 18.6496 8.73399 19.0009C9.58132 19.3523 10.47 19.5279 11.4 19.5279C12.9707 19.5279 14.314 19.0939 15.43 18.2259C16.546 17.3579 17.2797 16.1903 17.631 14.7229H10.346V10.8789Z" fill="#333243"/>
<path d="M40.8614 7.49993L31.8714 28.2699H27.3144L29.7944 22.5039L23.3774 7.49993H27.9344L32.0264 17.3889L36.3044 7.49993H40.8614Z" fill="#333243"/>
<path d="M62.7779 7.06593C63.5632 7.06593 64.3176 7.22093 65.0409 7.53093C65.7849 7.82027 66.4359 8.24393 66.9939 8.80193C67.5519 9.35993 67.9859 10.0316 68.2959 10.8169C68.6266 11.5816 68.7919 12.4186 68.7919 13.3279V22.9999H64.7309V14.1649C64.7309 13.6896 64.6276 13.1936 64.4209 12.6769C64.2349 12.1396 63.8836 11.6953 63.3669 11.3439C62.8709 10.9926 62.3129 10.8169 61.6929 10.8169C60.5769 10.8169 59.6986 11.2199 59.0579 12.0259C58.4172 12.8113 58.0969 13.9893 58.0969 15.5599V22.9999H54.0049V14.1649C54.0049 13.6896 53.9016 13.1936 53.6949 12.6769C53.5089 12.1396 53.1576 11.6953 52.6409 11.3439C52.1449 10.9926 51.5869 10.8169 50.9669 10.8169C49.8509 10.8169 48.9829 11.2199 48.3629 12.0259C47.7429 12.8113 47.4329 13.9893 47.4329 15.5599V22.9999H43.3409V7.53093H47.4329V8.80193C48.5902 7.6446 50.1299 7.06593 52.0519 7.06593C53.0852 7.06593 54.0566 7.29327 54.9659 7.74793C55.8752 8.18193 56.5986 8.80193 57.1359 9.60793C57.7766 8.80193 58.5722 8.18193 59.5229 7.74793C60.4942 7.29327 61.5792 7.06593 62.7779 7.06593Z" fill="#333243"/>
<path d="M91.1187 2.22993V22.9999H86.9027V14.4749H76.9827V22.9999H72.7667V2.22993H76.9827V10.6619H86.9027V2.22993H91.1187Z" fill="#333243"/>
<path d="M110.073 14.9709V16.3659H98.2927C98.3961 16.8826 98.5924 17.4303 98.8818 18.0089C99.1918 18.5669 99.6464 19.0319 100.246 19.4039C100.845 19.7759 101.486 19.9619 102.168 19.9619C103.18 19.9619 103.976 19.7863 104.555 19.4349C105.154 19.0629 105.64 18.5566 106.012 17.9159L109.67 18.6909C109.008 20.2616 108.016 21.4499 106.694 22.2559C105.392 23.0619 103.883 23.4649 102.168 23.4649C101.093 23.4649 100.07 23.2686 99.0987 22.8759C98.1274 22.4833 97.2801 21.9253 96.5567 21.2019C95.8334 20.4579 95.2651 19.5796 94.8518 18.5669C94.4384 17.5543 94.2318 16.4589 94.2318 15.2809C94.2318 14.1029 94.4384 13.0076 94.8518 11.9949C95.2651 10.9823 95.8334 10.1143 96.5567 9.39093C97.3007 8.64693 98.1584 8.0786 99.1298 7.68593C100.122 7.2726 101.155 7.06593 102.23 7.06593C103.242 7.06593 104.214 7.26227 105.144 7.65493C106.094 8.02693 106.931 8.56427 107.655 9.26693C108.378 9.9696 108.946 10.8169 109.36 11.8089C109.794 12.7803 110.031 13.8343 110.073 14.9709ZM102.23 10.6309C101.63 10.6309 101.031 10.7756 100.432 11.0649C99.8531 11.3336 99.3984 11.6953 99.0677 12.1499C98.7371 12.6046 98.5201 13.0489 98.4167 13.4829H105.888C105.64 12.5529 105.175 11.8503 104.493 11.3749C103.831 10.8789 103.077 10.6309 102.23 10.6309Z" fill="#333243"/>
<path d="M128.744 7.53093V22.9999H124.652V21.7909C123.267 22.9069 121.562 23.4649 119.537 23.4649C118.565 23.4649 117.615 23.2686 116.685 22.8759C115.775 22.4833 114.959 21.9253 114.236 21.2019C113.533 20.4579 112.975 19.5796 112.562 18.5669C112.148 17.5336 111.942 16.4383 111.942 15.2809C111.942 14.4129 112.076 13.5139 112.345 12.5839C112.634 11.6333 113.14 10.7033 113.864 9.79393C114.608 8.8846 115.496 8.2026 116.53 7.74793C117.563 7.29327 118.565 7.06593 119.537 7.06593C121.583 7.06593 123.288 7.63427 124.652 8.77093V7.53093H128.744ZM120.25 19.8999C120.766 19.8999 121.304 19.7863 121.862 19.5589C122.42 19.3316 122.895 19.0216 123.288 18.6289C123.701 18.2363 124.032 17.7506 124.28 17.1719C124.528 16.5933 124.652 15.9629 124.652 15.2809C124.652 14.2683 124.393 13.3899 123.877 12.6459C123.36 11.8813 122.75 11.3543 122.048 11.0649C121.366 10.7756 120.766 10.6309 120.25 10.6309C118.989 10.6309 117.945 11.0546 117.119 11.9019C116.313 12.7493 115.91 13.8756 115.91 15.2809C115.91 16.1489 116.085 16.9549 116.437 17.6989C116.809 18.4223 117.346 18.9699 118.049 19.3419C118.751 19.7139 119.485 19.8999 120.25 19.8999Z" fill="#333243"/>
<path d="M137.163 22.9999H133.071V0.679932H137.163V22.9999Z" fill="#333243"/>
<path d="M151.593 18.9079L152.771 22.3179C152.192 22.6279 151.582 22.8966 150.942 23.1239C150.301 23.3513 149.567 23.4649 148.741 23.4649C146.86 23.4649 145.372 22.9483 144.277 21.9149C143.202 20.8816 142.665 19.3419 142.665 17.2959V10.8789H139.348V7.53093H142.665V2.84993H146.757V7.53093H151.81V10.8789H146.757V16.9859C146.757 17.8746 146.953 18.5463 147.346 19.0009C147.759 19.4349 148.317 19.6519 149.02 19.6519C149.35 19.6519 149.764 19.5796 150.26 19.4349C150.776 19.2903 151.221 19.1146 151.593 18.9079Z" fill="#333243"/>
<path d="M163.918 7.06593C165.757 7.06593 167.245 7.6756 168.382 8.89493C169.539 10.0936 170.118 11.6539 170.118 13.5759V22.9999H166.026V14.4439C166.026 13.3693 165.737 12.5013 165.158 11.8399C164.579 11.1579 163.825 10.8169 162.895 10.8169C161.676 10.8169 160.725 11.2509 160.043 12.1189C159.382 12.9869 159.051 14.3303 159.051 16.1489V22.9999H154.959V0.679932H159.051V8.92593C160.291 7.68593 161.913 7.06593 163.918 7.06593Z" fill="#333243"/>
</svg>
