<svg width="260" height="205" viewBox="0 0 260 205" fill="none" xmlns="http://www.w3.org/2000/svg">
<path fill-rule="evenodd" clip-rule="evenodd" d="M122.443 32.9353C110.364 13.8811 88.9657 1.76539 65.2658 3.04475C31.8761 4.84719 7.47194 32.5841 4.6594 66.1093C4.36741 69.5897 4.21847 73.1108 4.21847 76.6667C4.21847 98.157 9.65849 118.377 19.2366 136.024L32.7432 122.517C32.7662 122.534 32.7893 122.55 32.8124 122.566L122.443 32.9353Z" fill="#FF005C"/>
<path d="M128.839 201.283C197.666 201.283 253.461 145.491 253.461 76.6668C253.461 54.3967 247.618 33.4909 237.383 15.3984C171.068 81.7133 67.5724 185.209 67.5724 185.209C85.6647 195.442 106.57 201.283 128.839 201.283Z" fill="#FF005C"/>
</svg>
