<svg width="41" height="32" viewBox="0 0 41 32" fill="none" xmlns="http://www.w3.org/2000/svg">
<path fill-rule="evenodd" clip-rule="evenodd" d="M19.1055 5.14109C17.2169 2.1619 13.8712 0.267568 10.1656 0.467601C4.94501 0.749417 1.12933 5.08618 0.689582 10.328C0.643929 10.8721 0.620641 11.4227 0.620641 11.9787C0.620641 15.3387 1.47121 18.5001 2.96878 21.2594L5.08058 19.1476C5.08418 19.1501 5.08779 19.1526 5.0914 19.1552L19.1055 5.14109Z" fill="#E00051"/>
<path d="M20.1055 31.4628C30.8668 31.4628 39.5905 22.7395 39.5905 11.9787C39.5905 8.49665 38.6771 5.22797 37.0768 2.39914L10.5262 28.9495C13.355 30.5496 16.6236 31.4628 20.1055 31.4628Z" fill="#E00051"/>
</svg>
