<svg width="1920" height="1133" viewBox="0 0 1920 1133" fill="none" xmlns="http://www.w3.org/2000/svg">
<g clip-path="url(#clip0)">
<path d="M167.29 174.162C138.752 159.97 120.32 172.534 86.813 160.583C66.8272 153.455 60.4196 139.489 40.5084 132.155C-21.3889 109.355 -120.668 182.676 -120.668 182.676L-140.63 385.956C-70.2332 394.266 71.6324 410.789 75.9229 410.4C80.2134 410.011 298.863 425.097 373.715 412.648C373.715 412.648 339.877 345.971 308.003 311.118C283.277 284.08 262.734 275.981 236.317 250.592C207.32 222.723 203.302 192.071 167.29 174.162Z" fill="url(#paint0_linear)"/>
<path d="M-167.412 584.25C-67.7837 169.462 26.6717 316.989 212.201 246.891C259.029 229.197 285.693 210.505 335.71 212.581C484.824 218.768 509.786 423.921 474.051 568.823C414.051 812.113 -267.04 999.038 -167.412 584.25Z" fill="url(#paint1_linear)" fill-opacity="0.5"/>
<path d="M424.5 485C368.715 394.424 271 436.5 183 359C95 281.5 2.00009 318.167 -71.5001 346C-87.8335 458.166 -120.5 684.5 -120.5 692.5C-120.5 700.5 -194.833 1299.83 -232 1598.5L591.5 1635.5L2428.5 1661.5C2428.5 1661.5 2252.89 1209.52 1999 1105.5C1842.45 1041.36 1733.35 1103.85 1567 1073C1402.69 1042.53 1314.11 1007.44 1157 950.5C1014.1 898.714 909.5 920 844 798.5C781.144 681.905 693.906 691.161 599.5 620C530.574 568.046 471 560.5 424.5 485Z" fill="url(#paint2_linear)" fill-opacity="0.6"/>
<path d="M424.5 485C368.715 394.424 271 436.5 183 359C95 281.5 2.00009 318.167 -71.5001 346C-87.8335 458.166 -120.5 684.5 -120.5 692.5C-120.5 700.5 -194.833 1299.83 -232 1598.5L591.5 1635.5L2428.5 1661.5C2428.5 1661.5 2252.89 1209.52 1999 1105.5C1842.45 1041.36 1733.35 1103.85 1567 1073C1402.69 1042.53 1314.11 1007.44 1157 950.5C1014.1 898.714 909.5 920 844 798.5C781.144 681.905 693.906 691.161 599.5 620C530.574 568.046 471 560.5 424.5 485Z" fill="url(#paint3_linear)"/>
<path d="M279 521.999C166.586 506.183 107.5 426.999 8.5 407.999C-15.8652 403.323 -13.0786 368.579 -37 361.999C-77.1682 350.951 -143 373.999 -143 373.999C-143 373.999 -87.5048 378.813 -55 391.999C2.4649 415.312 5.10245 445.224 59.5 474.999C107 500.999 126.007 548.121 169 575.999C233 617.499 278.984 640.087 316 710.999C355.317 786.321 394.353 820.658 422 900.999C453.271 991.873 480.061 1023.47 515 1113C588.572 1301.52 670.501 1395.99 860 1467C1279 1624 1811 1672 1811 1672C2115 1558 2646.29 1595.81 2089 1238C2057 1253.5 1773 1238 1773 1238C1773 1238 1776.33 1264 1749 1258C1721.67 1252 1533 1165 1375 1146C1249.65 1130.93 1167 1045 1011 1010C929.508 991.716 895 955.999 803 884.999C733.302 831.21 701.737 777.381 632.5 722.999C580.78 682.376 506 644.999 506 644.999C506 644.999 378.5 535.999 279 521.999Z" fill="url(#paint4_linear)" fill-opacity="0.7"/>
<path d="M126.566 581.267L131.44 601.022L137.593 606.382L158.26 604.905L176.662 614.802L209.576 612.45C214.934 612.067 218.233 588.249 215.416 586.517C213.163 585.132 205.123 573.464 199.199 569.505L168.247 556.253L140.778 570.2L126.566 581.267Z" fill="white"/>
<path fill-rule="evenodd" clip-rule="evenodd" d="M169.204 556.662L150.5 578V590L160.736 606.237L158.26 604.905L137.593 606.382L131.44 601.022L126.566 581.267L140.778 570.2L168.247 556.253L169.204 556.662Z" fill="url(#paint5_linear)"/>
<path d="M23.0019 542.149C11.5168 568.921 26.9115 586.413 40.0006 598C53.0898 609.587 111.375 614.5 127.875 608.173C144.375 601.846 117.368 596.753 127.875 589.644C144.181 578.613 132.414 575.314 136.192 550.908C139.969 526.502 114.176 509.63 103.001 500C91.8257 490.37 52.666 498.463 45.6346 515.099C38.6032 531.735 30.3044 525.127 23.0019 542.149Z" fill="url(#paint6_linear)"/>
<path d="M168.692 515.919C192.058 537.377 178.438 553.949 158.656 583.661C138.874 613.372 124.619 611.738 111.091 611.738C97.5632 611.738 89.0774 608.511 81.4171 598.368C71.7981 585.633 86.3047 576.218 81.4171 557.5C76.5294 538.782 64.2522 528.844 73.1251 515.92C81.9979 502.995 96.6891 490.071 111.09 503.441C125.49 516.811 153.835 502.276 168.692 515.919Z" fill="url(#paint7_linear)"/>
<path d="M78.9507 319.845C79.2606 330.637 87.3564 334.125 93.716 335.985C100.076 337.846 120.95 330.43 125.629 325.735C130.308 321.04 120.186 323.529 122.675 319.503C126.536 313.256 113.688 316.022 111.098 307.226C108.508 298.43 111.584 297.096 106.196 295.596C100.808 294.096 82.2101 300.537 82.4391 307.226C82.668 313.915 78.7536 312.984 78.9507 319.845Z" fill="url(#paint8_linear)"/>
<path d="M131.831 320.348C132.374 332.092 124.267 332.885 110.982 335.52C97.6968 338.154 94.2967 333.999 90.6546 330.463C87.0125 326.927 85.5925 323.861 86.2472 319.194C87.0693 313.334 93.4969 314.653 97.1954 308.458C100.894 302.264 100.251 296.444 106.102 295.368C111.953 294.292 119.371 294.737 119.666 302.013C119.961 309.29 131.487 312.88 131.831 320.348Z" fill="url(#paint9_linear)"/>
</g>
<defs>
<linearGradient id="paint0_linear" x1="102.674" y1="2.51816" x2="81.4273" y2="309.772" gradientUnits="userSpaceOnUse">
<stop stop-color="#F3EAFE"/>
<stop offset="1" stop-color="#EAF1FE" stop-opacity="0"/>
</linearGradient>
<linearGradient id="paint1_linear" x1="507" y1="206.5" x2="-105.276" y2="556.309" gradientUnits="userSpaceOnUse">
<stop stop-color="#F5DCFB"/>
<stop offset="0.49953" stop-color="#D7E4FD"/>
<stop offset="1" stop-color="#DBE8FD" stop-opacity="0"/>
</linearGradient>
<linearGradient id="paint2_linear" x1="959" y1="514" x2="858.218" y2="1706.71" gradientUnits="userSpaceOnUse">
<stop stop-color="#FFD0FA"/>
<stop offset="0.786458" stop-color="#7CE1FF"/>
</linearGradient>
<linearGradient id="paint3_linear" x1="1318.5" y1="560" x2="-588.5" y2="2743" gradientUnits="userSpaceOnUse">
<stop stop-color="white" stop-opacity="0"/>
<stop offset="1" stop-color="#7000FF"/>
</linearGradient>
<linearGradient id="paint4_linear" x1="1826.5" y1="2113" x2="21.0005" y2="319.999" gradientUnits="userSpaceOnUse">
<stop stop-color="#774C86"/>
<stop offset="0.677083" stop-color="#573962" stop-opacity="0.32"/>
<stop offset="1" stop-color="#7783A2" stop-opacity="0"/>
</linearGradient>
<linearGradient id="paint5_linear" x1="169" y1="581" x2="84" y2="633" gradientUnits="userSpaceOnUse">
<stop stop-color="white"/>
<stop offset="1" stop-color="#A4C4D6"/>
</linearGradient>
<linearGradient id="paint6_linear" x1="135.001" y1="648" x2="0.695593" y2="401.007" gradientUnits="userSpaceOnUse">
<stop stop-color="#B8AAED"/>
<stop offset="1" stop-color="#D69DDF"/>
</linearGradient>
<linearGradient id="paint7_linear" x1="171" y1="532" x2="85.5174" y2="634.598" gradientUnits="userSpaceOnUse">
<stop stop-color="#D5B4ED"/>
<stop offset="1" stop-color="#D2B5ED"/>
</linearGradient>
<linearGradient id="paint8_linear" x1="128.82" y1="338.47" x2="68.6053" y2="290.865" gradientUnits="userSpaceOnUse">
<stop stop-color="#C6BAF1"/>
<stop offset="1" stop-color="#E2B0EA"/>
</linearGradient>
<linearGradient id="paint9_linear" x1="94.5" y1="325" x2="136.614" y2="315.285" gradientUnits="userSpaceOnUse">
<stop stop-color="#D9ABF0"/>
<stop offset="1" stop-color="#F8C9FF"/>
</linearGradient>
<clipPath id="clip0">
<rect width="1920" height="1133" fill="white"/>
</clipPath>
</defs>
</svg>
