<svg width="258" height="540" viewBox="0 0 258 540" fill="none" xmlns="http://www.w3.org/2000/svg">
<path d="M135.361 420.362C131.207 422.699 131.202 424.587 130.046 427.829C128.89 431.071 131.819 436.401 131.692 440.797C131.587 444.287 129.023 447.231 127.38 450.386C125.478 454.322 125.018 458.701 126.056 462.964C127.094 467.227 129.585 471.181 133.211 474.322C133.977 475.035 134.917 475.596 135.959 475.962C136.832 476.164 137.736 476.213 138.617 476.107C139.498 476.001 140.337 475.742 141.083 475.345C143.373 474.301 145.222 472.689 146.397 470.712C147.415 468.752 148.094 466.667 148.414 464.519L150.111 456.289C151.881 447.697 153.622 438.825 152.207 429.99C151.745 427.091 151.046 420.477 147.289 419.609C143.532 418.741 139.514 418.024 135.361 420.362Z" fill="#856299"/>
<path d="M144.102 440.746C150.363 440.495 162.584 434.169 166.735 433.287C198.454 426.548 199.698 373 176.883 392.26C154.069 411.519 142.034 421.829 138.319 427.219C134.604 432.609 137.842 440.997 144.102 440.746Z" fill="url(#paint0_linear)"/>
<path d="M147.582 259.648C159.773 254.929 221.708 250.856 225.435 271.915C229.163 292.973 230.672 314.467 220.198 333.168C209.724 351.869 148.514 346.899 136.762 333.168C125.01 319.437 135.392 264.367 147.582 259.648Z" fill="#FDFDFE"/>
<path d="M191.241 307.817C191.241 307.817 229.653 270.919 228.057 310.122C226.461 349.326 207.771 382.79 201.238 399.16C176.464 433.229 170.422 400.2 174.218 356.508C178.014 312.816 191.241 307.817 191.241 307.817Z" fill="url(#paint1_linear)"/>
<path d="M163.994 407.556C168.18 396.194 197.5 367.172 194.67 409.391C191.43 424.682 191.323 445.723 190.078 468.324C188.815 491.233 186.659 519.34 186.659 519.34L174.487 509.927C175.297 497.834 159.743 446.26 160.185 439.42C160.371 426.42 159.809 418.918 163.994 407.556Z" fill="url(#paint2_linear)"/>
<path d="M133.365 302.149C141.776 268.347 181.654 305.46 181.654 305.46C193.488 347.109 184.747 349.33 193.458 391.309C202.168 433.288 163.256 409.945 163.256 409.945C163.256 409.945 124.953 335.95 133.365 302.149Z" fill="url(#paint3_linear)"/>
<path fill-rule="evenodd" clip-rule="evenodd" d="M223.995 268.596C213.585 256.874 159.04 254.999 147.459 259.632C137.05 263.796 127.864 306.52 133.383 326.286C134.989 337.101 138.203 348.912 141.925 360.166C148.129 353.826 145.386 342.668 142.894 332.529C140.467 322.652 138.277 313.741 144.826 311.194C150.896 308.833 151.17 304.264 151.424 300.015C151.805 293.662 152.142 288.024 171.757 291.555C194.087 295.574 213.371 282.486 223.995 268.596Z" fill="#C6E6FF" fill-opacity="0.34"/>
<path d="M173.644 514.268C173.751 513.628 174.432 513.273 175.024 513.538L207.21 527.985C207.537 528.132 207.76 528.442 207.796 528.799L208.463 535.53C208.518 536.08 208.126 536.569 207.576 536.623C203.475 537.03 187.658 538.599 180.589 539.301C172.43 540.11 172.89 532.877 172.419 528.133C172.048 524.396 173.156 517.17 173.644 514.268Z" fill="white"/>
<path d="M173.43 514.584C173.952 520.045 173.279 525.094 173.643 528.61C174.007 532.127 176.798 536.682 179.915 536.481C179.915 536.481 193.434 535.14 204.671 533.817C211.182 533.271 208.972 523.46 200.104 524.01C192.56 518.143 191.405 513.214 191.074 509.882C190.743 506.55 188.388 503.941 186.686 502.714C184.984 501.488 182.185 500.811 179.18 501.365C176.174 501.92 177.593 505.284 176.77 506.739C175.948 508.194 174.34 508.962 173.568 510.051C172.543 511.811 173.232 512.592 173.43 514.584Z" fill="#856299"/>
<g opacity="0.85">
<path d="M109.218 68.4491C124.585 41.2195 156.154 39.3809 168.031 48.3955C179.908 57.4102 197.442 103.394 166.025 110.379C134.608 117.365 139.242 136.551 109.775 162.432C80.3078 188.313 5.11662 171.704 20.777 120.077C36.4374 68.4492 88.6686 104.86 109.218 68.4491Z" fill="url(#paint4_linear)"/>
<path fill-rule="evenodd" clip-rule="evenodd" d="M223.652 219.489C220.482 215.535 218.972 206.654 218.142 197.06C217.387 200.765 216.87 204.674 216.783 208.823C216.272 233.187 216.979 244.999 224.273 268.271C190.746 296.611 158.364 281.978 145.696 276.253C143.958 275.468 142.591 274.85 141.643 274.534C137.797 273.252 138.942 269.664 141.005 263.202C143.155 256.464 146.304 246.601 145.831 232.967C145.403 220.61 140.38 210.763 135.407 201.016C134.884 199.99 134.36 198.964 133.843 197.937C128.989 203.629 124.563 209.746 122.176 218.345C115.961 240.73 101.489 241.157 97.1787 227.008C92.8689 212.859 106.034 185.148 121.087 156.059C126.62 149.557 132.529 145.606 137.827 144.06C152.335 133.193 174.376 130.511 174.376 130.511C174.376 130.511 197.682 134.9 212.805 143.65C216.006 144.74 220.34 146.619 226.093 149.496C242.446 158.65 242.517 197.006 242.554 216.483C242.555 217.061 242.556 217.623 242.557 218.167C242.607 237.024 231.392 229.144 223.652 219.489Z" fill="url(#paint5_linear)"/>
<path fill-rule="evenodd" clip-rule="evenodd" d="M218.214 243.512C204.301 238.918 204.662 225.294 204.868 217.514C204.89 216.664 204.911 215.884 204.911 215.193C204.911 213.246 204.82 211.66 204.744 210.331C204.494 205.942 204.403 204.356 208.264 201.782C216.522 198.833 217.124 188.731 216.756 183.003C217.394 188.569 217.823 193.224 218.119 197.175C217.377 200.846 216.869 204.717 216.783 208.823C216.485 223.08 216.603 233.039 218.214 243.512ZM216.274 178.955C216.274 178.955 216.601 180.591 216.756 183.003C216.607 181.704 216.447 180.356 216.274 178.955Z" fill="#89CF8B"/>
<path d="M231.378 209.06C209.242 203.136 218.997 219.229 219.659 221.649C220.32 224.069 202.731 224.611 224.867 233.497C247.003 242.383 253.514 214.984 231.378 209.06Z" fill="#77B77A"/>
<path fill-rule="evenodd" clip-rule="evenodd" d="M222.099 260.976C222.749 263.29 223.471 265.712 224.274 268.271C190.746 296.611 158.364 281.978 145.696 276.253C143.958 275.468 142.591 274.85 141.643 274.534C137.798 273.252 138.943 269.664 141.005 263.202C143.156 256.464 146.304 246.601 145.832 232.967C145.403 220.61 140.38 210.763 135.408 201.016L135.406 201.012C134.883 199.987 134.36 198.963 133.844 197.937C133.838 197.943 133.832 197.95 133.827 197.957C135.986 193.541 137.061 190.739 137.061 190.739C139.33 207.751 147.001 211.5 155.396 215.603C156.692 216.237 158.006 216.879 159.319 217.579C163.444 219.779 162.931 224.113 162.363 228.91C161.579 235.533 160.691 243.041 171.758 247.038C181.25 250.467 183.51 255.824 185.587 260.748C187.687 265.724 189.6 270.258 198.598 271.915C206.274 273.328 214.227 267.152 222.099 260.976ZM105.426 236.406C112.238 230.483 117.94 223.647 122.542 217.098C122.415 217.508 122.293 217.923 122.176 218.345C118.31 232.27 111.249 237.698 105.426 236.406Z" fill="#84CA88" fill-opacity="0.59"/>
<path fill-rule="evenodd" clip-rule="evenodd" d="M195.044 135.991C196.323 136.418 197.62 136.869 198.919 137.345C202.136 139.195 203.342 142.686 200.562 148.841C189.433 171.754 139.68 165.207 140.334 156.042C140.67 151.348 135.852 151.634 131.601 151.887C129.039 152.039 126.683 152.179 125.783 151.211C129.869 147.54 134.007 145.174 137.827 144.06C139.34 142.927 140.934 141.883 142.577 140.921C149.626 139.69 157.416 139.098 162.902 138.681C165.546 138.48 167.655 138.319 168.888 138.148C169.643 138.043 170.748 137.839 172.103 137.589C177.868 136.525 188.145 134.63 195.044 135.991Z" fill="#84CA88"/>
<path d="M160.268 272.041C168.327 272.392 182.807 262.792 172.476 254.242C162.945 245.657 147.055 256.7 145.835 251.158C144.616 245.616 130.209 247.468 132.57 257.313C141.821 262.452 152.208 271.691 160.268 272.041Z" fill="url(#paint6_linear)"/>
<path d="M98.132 230.274C94.7405 217.146 121.431 215.158 121.431 215.158C121.431 215.158 127.06 231.349 131.564 237.29C136.068 243.231 150.154 250.966 147.535 252.276C147.535 252.276 140.334 260.786 140.334 262.095C140.334 263.405 101.524 243.401 98.132 230.274Z" fill="#95D88E"/>
<path fill-rule="evenodd" clip-rule="evenodd" d="M145.308 248.921C147.335 250.586 148.446 251.82 147.535 252.276C147.535 252.276 140.334 260.786 140.334 262.095C140.334 262.338 139.002 261.849 136.81 260.808C138.711 254.33 141.679 251.896 145.13 249.067C145.189 249.019 145.249 248.97 145.308 248.921Z" fill="#77B77A"/>
<path d="M195.445 132.907C175.148 126.886 173.166 126.657 158.062 126.312C142.958 125.968 135.598 135.437 140.99 148.841C146.382 162.245 182.995 170.367 199.337 147.553C204.474 140.383 200.163 134.307 195.445 132.907Z" fill="url(#paint7_linear)"/>
<path d="M180.524 128.383C191.972 129.442 201.872 141.64 177.65 144.913C163.248 144.913 156.957 142.409 150.754 137.292C144.55 132.174 150.789 121.874 180.524 128.383Z" fill="#77B77A"/>
<path d="M162.584 114.733L182.257 113.557L190.582 139.06C190.858 139.903 190.533 140.838 189.793 141.328C173.099 152.388 171.946 144.432 159.346 142.739C158.147 142.578 157.275 141.461 157.51 140.274L162.584 114.733Z" fill="url(#paint8_linear)"/>
<path fill-rule="evenodd" clip-rule="evenodd" d="M186.787 127.446C183.459 131.206 179.76 133.49 176.096 133.82C171.35 134.247 165.483 132.316 160.011 127.686L162.189 114.757L182.689 113.531L186.787 127.446Z" fill="#FC8780"/>
<path d="M197.437 91.9624C197.479 107.777 173.238 116.643 173.238 116.643C173.238 116.643 142.211 114.766 136.564 99.961C130.917 85.1558 131.71 59.9627 169.309 58.5817C191.119 59.0699 197.395 76.1476 197.437 91.9624Z" fill="url(#paint9_linear)"/>
<path d="M188.656 107.119C189.785 110.507 192.686 111.109 196.162 110.06C198.512 109.351 199.781 104.684 199.537 100.948C198.711 97.398 196.383 98.0381 192.907 99.0867C189.431 100.135 187.528 103.732 188.656 107.119Z" fill="#FFB9A0"/>
<path d="M194.809 102.213C194.851 118.138 186.658 132.054 176.897 131.321C167.135 130.587 150.83 118.268 150.788 102.343C150.746 86.4181 161.849 91.465 176.777 85.9991C191.705 80.5331 194.767 86.2879 194.809 102.213Z" fill="url(#paint10_linear)"/>
<path d="M158.461 109.793C158.395 113.346 155.794 114.711 152.149 114.651C149.683 114.609 147.069 110.481 146.183 106.834C145.912 103.207 148.335 103.188 151.981 103.249C155.626 103.31 158.528 106.24 158.461 109.793Z" fill="#FFA293"/>
<path fill-rule="evenodd" clip-rule="evenodd" d="M183.234 159.61C182.788 158.221 182.243 157.043 181.604 156.121C181.241 155.596 181.244 154.869 181.698 154.427V154.427C182.157 153.979 182.901 153.991 183.287 154.509C184.207 155.744 184.906 157.266 185.435 158.915C186.103 160.999 186.524 163.363 186.754 165.775C187.214 170.592 186.925 175.728 186.232 179.446C185.6 182.835 185.961 186.884 187.192 190.459C188.268 193.587 189.958 196.21 192.077 197.751C192.594 198.127 192.816 198.821 192.521 199.384V199.384C192.222 199.953 191.511 200.172 190.978 199.805C188.206 197.902 186.208 194.692 185.006 191.202C183.658 187.285 183.244 182.825 183.958 178.997C184.61 175.497 184.891 170.581 184.451 165.977C184.232 163.678 183.836 161.489 183.234 159.61Z" fill="white"/>
<path fill-rule="evenodd" clip-rule="evenodd" d="M163.853 156.042C163.856 156.032 163.859 156.022 163.863 156.012C163.918 155.862 164.423 154.591 165.689 155.102C167.011 155.637 166.382 156.708 166.361 156.742C166.361 156.743 166.361 156.744 166.36 156.745V156.745L166.358 156.753L166.347 156.787C166.337 156.817 166.323 156.864 166.304 156.926C166.265 157.05 166.209 157.234 166.138 157.474C165.996 157.953 165.795 158.651 165.564 159.52C165.102 161.26 164.519 163.68 164.036 166.398C163.057 171.899 162.532 178.383 164.037 182.975C165.75 188.201 164.913 192.108 163.961 195.741C163.893 195.999 163.826 196.254 163.758 196.508C162.977 199.451 162.248 202.2 162.66 205.582C162.748 206.306 162.286 207.001 161.569 207.136V207.136C160.866 207.268 160.182 206.811 160.087 206.101C159.56 202.137 160.414 198.934 161.207 195.958C161.279 195.687 161.351 195.419 161.421 195.152C162.338 191.654 163.033 188.294 161.537 183.73C159.833 178.53 160.47 171.531 161.454 165.996C161.952 163.196 162.552 160.71 163.026 158.923C163.264 158.029 163.47 157.309 163.618 156.81C163.692 156.561 163.752 156.367 163.793 156.234C163.813 156.168 163.829 156.117 163.84 156.082L163.853 156.042V156.042Z" fill="white"/>
<path d="M165.585 177.139C165.705 176.04 166.695 175.228 167.797 175.328L186.496 177.016C187.645 177.12 188.449 178.171 188.25 179.309L182.41 212.765C182.224 213.834 181.219 214.577 180.145 214.441L163.683 212.356C162.617 212.221 161.865 211.268 161.982 210.199L165.585 177.139Z" fill="#7A5491"/>
<rect width="7.05291" height="3.12612" rx="1.56306" transform="matrix(0.995019 0.0996871 -0.120437 0.992721 167.392 176.956)" fill="white"/>
<path d="M179.051 192.054C188.45 196.172 185.892 203.474 197.087 206.985C213.802 212.227 224.685 211.623 234.119 216.129C245.855 221.735 240.758 234.166 228.567 233.972C218.881 233.817 204.411 221.514 188.556 215.668C184.457 214.157 181.469 214.091 172.632 211.299C163.794 208.507 152.031 180.217 179.051 192.054Z" fill="url(#paint11_linear)"/>
</g>
<defs>
<linearGradient id="paint0_linear" x1="127.896" y1="493.186" x2="182.232" y2="402.845" gradientUnits="userSpaceOnUse">
<stop stop-color="#CBE9FF"/>
<stop offset="1" stop-color="white"/>
</linearGradient>
<linearGradient id="paint1_linear" x1="192.338" y1="312.422" x2="113.816" y2="418.23" gradientUnits="userSpaceOnUse">
<stop stop-color="white"/>
<stop offset="1" stop-color="#8CBDEB"/>
</linearGradient>
<linearGradient id="paint2_linear" x1="180.45" y1="423.15" x2="179.522" y2="519.486" gradientUnits="userSpaceOnUse">
<stop stop-color="#EDF4FB"/>
<stop offset="1" stop-color="#E3F3FF"/>
</linearGradient>
<linearGradient id="paint3_linear" x1="190.047" y1="331.951" x2="109.658" y2="413.33" gradientUnits="userSpaceOnUse">
<stop stop-color="white"/>
<stop offset="1" stop-color="#DEEBF8"/>
</linearGradient>
<linearGradient id="paint4_linear" x1="335.667" y1="-58.0532" x2="84.2133" y2="119.64" gradientUnits="userSpaceOnUse">
<stop stop-color="#B186C0"/>
<stop offset="1" stop-color="#66467D"/>
</linearGradient>
<linearGradient id="paint5_linear" x1="160.301" y1="271.716" x2="233.042" y2="124.062" gradientUnits="userSpaceOnUse">
<stop stop-color="#8ED590"/>
<stop offset="1" stop-color="#B6E886"/>
</linearGradient>
<linearGradient id="paint6_linear" x1="179.613" y1="262.095" x2="139.85" y2="247.224" gradientUnits="userSpaceOnUse">
<stop stop-color="#FFA794"/>
<stop offset="1" stop-color="#FF8686"/>
</linearGradient>
<linearGradient id="paint7_linear" x1="131.474" y1="113.522" x2="172.871" y2="161.142" gradientUnits="userSpaceOnUse">
<stop stop-color="#AEE488"/>
<stop offset="1" stop-color="#93D78E"/>
</linearGradient>
<linearGradient id="paint8_linear" x1="164.259" y1="122.743" x2="182.257" y2="144.753" gradientUnits="userSpaceOnUse">
<stop stop-color="#FF8C86"/>
<stop offset="1" stop-color="#FFA794"/>
</linearGradient>
<linearGradient id="paint9_linear" x1="142.887" y1="104.554" x2="211.24" y2="24.4816" gradientUnits="userSpaceOnUse">
<stop stop-color="#65467D"/>
<stop offset="1" stop-color="#B186C0"/>
</linearGradient>
<linearGradient id="paint10_linear" x1="154.832" y1="113.761" x2="194.288" y2="102.748" gradientUnits="userSpaceOnUse">
<stop stop-color="#FFA293"/>
<stop offset="1" stop-color="#FFB398"/>
</linearGradient>
<linearGradient id="paint11_linear" x1="166.481" y1="205.021" x2="218.391" y2="180.887" gradientUnits="userSpaceOnUse">
<stop stop-color="#FF9393"/>
<stop offset="1" stop-color="#FFBDA1"/>
</linearGradient>
</defs>
</svg>
