<svg width="171" height="29" viewBox="0 0 171 29" fill="none" xmlns="http://www.w3.org/2000/svg">
<path d="M10.3462 10.8792H21.7232C21.7852 11.5818 21.8162 12.1812 21.8162 12.6772C21.8162 14.1858 21.5579 15.6015 21.0412 16.9242C20.5246 18.2468 19.7909 19.4042 18.8402 20.3962C17.8896 21.3675 16.7632 22.1218 15.4612 22.6592C14.1592 23.1965 12.7642 23.4652 11.2762 23.4652C10.5529 23.4652 9.72624 23.3722 8.79624 23.1862C7.86624 23.0002 6.9259 22.6592 5.97523 22.1632C5.04523 21.6672 4.1979 21.0575 3.43323 20.3342C2.68923 19.5902 2.0589 18.7532 1.54223 17.8232C1.04623 16.8932 0.705234 15.9735 0.519234 15.0642C0.333234 14.1342 0.240234 13.3178 0.240234 12.6152C0.240234 11.1478 0.519234 9.75284 1.07723 8.43017C1.63523 7.08684 2.41023 5.91918 3.40223 4.92718C4.4149 3.93518 5.58257 3.16017 6.90523 2.60217C8.24857 2.04417 9.66424 1.76517 11.1522 1.76517C11.9582 1.76517 12.8262 1.85817 13.7562 2.04417C14.7069 2.20951 15.6472 2.51951 16.5772 2.97418C17.5072 3.42884 18.3856 4.06951 19.2122 4.89617C20.0389 5.72284 20.6796 6.76651 21.1342 8.02718L17.3522 9.36018C16.0916 6.94217 14.0249 5.73317 11.1522 5.73317C10.2429 5.73317 9.3749 5.90884 8.54824 6.26018C7.74224 6.61151 7.03957 7.09718 6.44023 7.71718C5.8409 8.33718 5.36557 9.07084 5.01423 9.91818C4.68357 10.7655 4.51823 11.6645 4.51823 12.6152C4.51823 13.5658 4.6939 14.4752 5.04523 15.3432C5.39657 16.1905 5.88223 16.9242 6.50223 17.5442C7.1429 18.1642 7.8869 18.6498 8.73423 19.0012C9.58157 19.3525 10.4702 19.5282 11.4002 19.5282C12.9709 19.5282 14.3142 19.0942 15.4302 18.2262C16.5462 17.3582 17.2799 16.1905 17.6312 14.7232H10.3462V10.8792Z" fill="#333243"/>
<path d="M40.8616 7.50018L31.8716 28.2702H27.3146L29.7946 22.5042L23.3776 7.50018H27.9346L32.0266 17.3892L36.3046 7.50018H40.8616Z" fill="#333243"/>
<path d="M62.7781 7.06618C63.5635 7.06618 64.3178 7.22118 65.0411 7.53118C65.7851 7.82051 66.4361 8.24417 66.9941 8.80217C67.5521 9.36017 67.9861 10.0318 68.2961 10.8172C68.6268 11.5818 68.7921 12.4188 68.7921 13.3282V23.0002H64.7311V14.1652C64.7311 13.6898 64.6278 13.1938 64.4211 12.6772C64.2351 12.1398 63.8838 11.6955 63.3671 11.3442C62.8711 10.9928 62.3131 10.8172 61.6931 10.8172C60.5771 10.8172 59.6988 11.2202 59.0581 12.0262C58.4175 12.8115 58.0971 13.9895 58.0971 15.5602V23.0002H54.0051V14.1652C54.0051 13.6898 53.9018 13.1938 53.6951 12.6772C53.5091 12.1398 53.1578 11.6955 52.6411 11.3442C52.1451 10.9928 51.5871 10.8172 50.9671 10.8172C49.8511 10.8172 48.9831 11.2202 48.3631 12.0262C47.7431 12.8115 47.4331 13.9895 47.4331 15.5602V23.0002H43.3411V7.53118H47.4331V8.80217C48.5905 7.64484 50.1301 7.06618 52.0521 7.06618C53.0855 7.06618 54.0568 7.29351 54.9661 7.74818C55.8755 8.18218 56.5988 8.80218 57.1361 9.60818C57.7768 8.80218 58.5725 8.18218 59.5231 7.74818C60.4945 7.29351 61.5795 7.06618 62.7781 7.06618Z" fill="#333243"/>
<path d="M91.1189 2.23018V23.0002H86.9029V14.4752H76.9829V23.0002H72.7669V2.23018H76.9829V10.6622H86.9029V2.23018H91.1189Z" fill="#333243"/>
<path d="M110.073 14.9712V16.3662H98.293C98.3963 16.8828 98.5927 17.4305 98.882 18.0092C99.192 18.5672 99.6467 19.0322 100.246 19.4042C100.845 19.7762 101.486 19.9622 102.168 19.9622C103.181 19.9622 103.976 19.7865 104.555 19.4352C105.154 19.0632 105.64 18.5568 106.012 17.9162L109.67 18.6912C109.009 20.2618 108.017 21.4502 106.694 22.2562C105.392 23.0622 103.883 23.4652 102.168 23.4652C101.093 23.4652 100.07 23.2688 99.099 22.8762C98.1277 22.4835 97.2803 21.9255 96.557 21.2022C95.8337 20.4582 95.2653 19.5798 94.852 18.5672C94.4387 17.5545 94.232 16.4592 94.232 15.2812C94.232 14.1032 94.4387 13.0078 94.852 11.9952C95.2653 10.9825 95.8337 10.1145 96.557 9.39118C97.301 8.64718 98.1587 8.07884 99.13 7.68618C100.122 7.27284 101.155 7.06618 102.23 7.06618C103.243 7.06618 104.214 7.26251 105.144 7.65518C106.095 8.02718 106.932 8.56451 107.655 9.26718C108.378 9.96984 108.947 10.8172 109.36 11.8092C109.794 12.7805 110.032 13.8345 110.073 14.9712ZM102.23 10.6312C101.631 10.6312 101.031 10.7758 100.432 11.0652C99.8533 11.3338 99.3987 11.6955 99.068 12.1502C98.7373 12.6048 98.5203 13.0492 98.417 13.4832H105.888C105.64 12.5532 105.175 11.8505 104.493 11.3752C103.832 10.8792 103.077 10.6312 102.23 10.6312Z" fill="#333243"/>
<path d="M128.744 7.53118V23.0002H124.652V21.7912C123.267 22.9072 121.562 23.4652 119.537 23.4652C118.566 23.4652 117.615 23.2688 116.685 22.8762C115.776 22.4835 114.959 21.9255 114.236 21.2022C113.533 20.4582 112.975 19.5798 112.562 18.5672C112.149 17.5338 111.942 16.4385 111.942 15.2812C111.942 14.4132 112.076 13.5142 112.345 12.5842C112.634 11.6335 113.141 10.7035 113.864 9.79418C114.608 8.88484 115.497 8.20284 116.53 7.74818C117.563 7.29351 118.566 7.06618 119.537 7.06618C121.583 7.06618 123.288 7.63451 124.652 8.77118V7.53118H128.744ZM120.25 19.9002C120.767 19.9002 121.304 19.7865 121.862 19.5592C122.42 19.3318 122.895 19.0218 123.288 18.6292C123.701 18.2365 124.032 17.7508 124.28 17.1722C124.528 16.5935 124.652 15.9632 124.652 15.2812C124.652 14.2685 124.394 13.3902 123.877 12.6462C123.36 11.8815 122.751 11.3545 122.048 11.0652C121.366 10.7758 120.767 10.6312 120.25 10.6312C118.989 10.6312 117.946 11.0548 117.119 11.9022C116.313 12.7495 115.91 13.8758 115.91 15.2812C115.91 16.1492 116.086 16.9552 116.437 17.6992C116.809 18.4225 117.346 18.9702 118.049 19.3422C118.752 19.7142 119.485 19.9002 120.25 19.9002Z" fill="#333243"/>
<path d="M137.164 23.0002H133.072V0.680176H137.164V23.0002Z" fill="#333243"/>
<path d="M151.593 18.9082L152.771 22.3182C152.192 22.6282 151.583 22.8968 150.942 23.1242C150.301 23.3515 149.568 23.4652 148.741 23.4652C146.86 23.4652 145.372 22.9485 144.277 21.9152C143.202 20.8818 142.665 19.3422 142.665 17.2962V10.8792H139.348V7.53118H142.665V2.85017H146.757V7.53118H151.81V10.8792H146.757V16.9862C146.757 17.8748 146.953 18.5465 147.346 19.0012C147.759 19.4352 148.317 19.6522 149.02 19.6522C149.351 19.6522 149.764 19.5798 150.26 19.4352C150.777 19.2905 151.221 19.1148 151.593 18.9082Z" fill="#333243"/>
<path d="M163.918 7.06618C165.758 7.06618 167.246 7.67584 168.382 8.89518C169.54 10.0938 170.118 11.6542 170.118 13.5762V23.0002H166.026V14.4442C166.026 13.3695 165.737 12.5015 165.158 11.8402C164.58 11.1582 163.825 10.8172 162.895 10.8172C161.676 10.8172 160.725 11.2512 160.043 12.1192C159.382 12.9872 159.051 14.3305 159.051 16.1492V23.0002H154.959V0.680176H159.051V8.92618C160.291 7.68618 161.914 7.06618 163.918 7.06618Z" fill="#333243"/>
</svg>
