<svg width="222" height="48" viewBox="0 0 222 48" fill="none" xmlns="http://www.w3.org/2000/svg">
<path d="M60.346 22.879H71.723C71.785 23.5817 71.816 24.181 71.816 24.677C71.816 26.1857 71.5577 27.6013 71.041 28.924C70.5243 30.2467 69.7907 31.404 68.84 32.396C67.8893 33.3673 66.763 34.1217 65.461 34.659C64.159 35.1963 62.764 35.465 61.276 35.465C60.5527 35.465 59.726 35.372 58.796 35.186C57.866 35 56.9257 34.659 55.975 34.163C55.045 33.667 54.1977 33.0573 53.433 32.334C52.689 31.59 52.0587 30.753 51.542 29.823C51.046 28.893 50.705 27.9733 50.519 27.064C50.333 26.134 50.24 25.3177 50.24 24.615C50.24 23.1477 50.519 21.7527 51.077 20.43C51.635 19.0867 52.41 17.919 53.402 16.927C54.4147 15.935 55.5823 15.16 56.905 14.602C58.2483 14.044 59.664 13.765 61.152 13.765C61.958 13.765 62.826 13.858 63.756 14.044C64.7067 14.2093 65.647 14.5193 66.577 14.974C67.507 15.4287 68.3853 16.0693 69.212 16.896C70.0387 17.7227 70.6793 18.7663 71.134 20.027L67.352 21.36C66.0913 18.942 64.0247 17.733 61.152 17.733C60.2427 17.733 59.3747 17.9087 58.548 18.26C57.742 18.6113 57.0393 19.097 56.44 19.717C55.8407 20.337 55.3653 21.0707 55.014 21.918C54.6833 22.7653 54.518 23.6643 54.518 24.615C54.518 25.5657 54.6937 26.475 55.045 27.343C55.3963 28.1903 55.882 28.924 56.502 29.544C57.1427 30.164 57.8867 30.6497 58.734 31.001C59.5813 31.3523 60.47 31.528 61.4 31.528C62.9707 31.528 64.314 31.094 65.43 30.226C66.546 29.358 67.2797 28.1903 67.631 26.723H60.346V22.879ZM90.8614 19.5L81.8714 40.27H77.3144L79.7944 34.504L73.3774 19.5H77.9344L82.0264 29.389L86.3044 19.5H90.8614ZM112.778 19.066C113.563 19.066 114.318 19.221 115.041 19.531C115.785 19.8203 116.436 20.244 116.994 20.802C117.552 21.36 117.986 22.0317 118.296 22.817C118.627 23.5817 118.792 24.4187 118.792 25.328V35H114.731V26.165C114.731 25.6897 114.628 25.1937 114.421 24.677C114.235 24.1397 113.884 23.6953 113.367 23.344C112.871 22.9927 112.313 22.817 111.693 22.817C110.577 22.817 109.699 23.22 109.058 24.026C108.417 24.8113 108.097 25.9893 108.097 27.56V35H104.005V26.165C104.005 25.6897 103.902 25.1937 103.695 24.677C103.509 24.1397 103.158 23.6953 102.641 23.344C102.145 22.9927 101.587 22.817 100.967 22.817C99.8509 22.817 98.9829 23.22 98.3629 24.026C97.7429 24.8113 97.4329 25.9893 97.4329 27.56V35H93.3409V19.531H97.4329V20.802C98.5902 19.6447 100.13 19.066 102.052 19.066C103.085 19.066 104.057 19.2933 104.966 19.748C105.875 20.182 106.599 20.802 107.136 21.608C107.777 20.802 108.572 20.182 109.523 19.748C110.494 19.2933 111.579 19.066 112.778 19.066ZM141.119 14.23V35H136.903V26.475H126.983V35H122.767V14.23H126.983V22.662H136.903V14.23H141.119ZM160.073 26.971V28.366H148.293C148.396 28.8827 148.592 29.4303 148.882 30.009C149.192 30.567 149.646 31.032 150.246 31.404C150.845 31.776 151.486 31.962 152.168 31.962C153.18 31.962 153.976 31.7863 154.555 31.435C155.154 31.063 155.64 30.5567 156.012 29.916L159.67 30.691C159.008 32.2617 158.016 33.45 156.694 34.256C155.392 35.062 153.883 35.465 152.168 35.465C151.093 35.465 150.07 35.2687 149.099 34.876C148.127 34.4833 147.28 33.9253 146.557 33.202C145.833 32.458 145.265 31.5797 144.852 30.567C144.438 29.5543 144.232 28.459 144.232 27.281C144.232 26.103 144.438 25.0077 144.852 23.995C145.265 22.9823 145.833 22.1143 146.557 21.391C147.301 20.647 148.158 20.0787 149.13 19.686C150.122 19.2727 151.155 19.066 152.23 19.066C153.242 19.066 154.214 19.2623 155.144 19.655C156.094 20.027 156.931 20.5643 157.655 21.267C158.378 21.9697 158.946 22.817 159.36 23.809C159.794 24.7803 160.031 25.8343 160.073 26.971ZM152.23 22.631C151.63 22.631 151.031 22.7757 150.432 23.065C149.853 23.3337 149.398 23.6953 149.068 24.15C148.737 24.6047 148.52 25.049 148.417 25.483H155.888C155.64 24.553 155.175 23.8503 154.493 23.375C153.831 22.879 153.077 22.631 152.23 22.631ZM178.744 19.531V35H174.652V33.791C173.267 34.907 171.562 35.465 169.537 35.465C168.565 35.465 167.615 35.2687 166.685 34.876C165.775 34.4833 164.959 33.9253 164.236 33.202C163.533 32.458 162.975 31.5797 162.562 30.567C162.148 29.5337 161.942 28.4383 161.942 27.281C161.942 26.413 162.076 25.514 162.345 24.584C162.634 23.6333 163.14 22.7033 163.864 21.794C164.608 20.8847 165.496 20.2027 166.53 19.748C167.563 19.2933 168.565 19.066 169.537 19.066C171.583 19.066 173.288 19.6343 174.652 20.771V19.531H178.744ZM170.25 31.9C170.766 31.9 171.304 31.7863 171.862 31.559C172.42 31.3317 172.895 31.0217 173.288 30.629C173.701 30.2363 174.032 29.7507 174.28 29.172C174.528 28.5933 174.652 27.963 174.652 27.281C174.652 26.2683 174.393 25.39 173.877 24.646C173.36 23.8813 172.75 23.3543 172.048 23.065C171.366 22.7757 170.766 22.631 170.25 22.631C168.989 22.631 167.945 23.0547 167.119 23.902C166.313 24.7493 165.91 25.8757 165.91 27.281C165.91 28.149 166.085 28.955 166.437 29.699C166.809 30.4223 167.346 30.97 168.049 31.342C168.751 31.714 169.485 31.9 170.25 31.9ZM187.163 35H183.071V12.68H187.163V35ZM201.593 30.908L202.771 34.318C202.192 34.628 201.582 34.8967 200.942 35.124C200.301 35.3513 199.567 35.465 198.741 35.465C196.86 35.465 195.372 34.9483 194.277 33.915C193.202 32.8817 192.665 31.342 192.665 29.296V22.879H189.348V19.531H192.665V14.85H196.757V19.531H201.81V22.879H196.757V28.986C196.757 29.8747 196.953 30.5463 197.346 31.001C197.759 31.435 198.317 31.652 199.02 31.652C199.35 31.652 199.764 31.5797 200.26 31.435C200.776 31.2903 201.221 31.1147 201.593 30.908ZM213.918 19.066C215.757 19.066 217.245 19.6757 218.382 20.895C219.539 22.0937 220.118 23.654 220.118 25.576V35H216.026V26.444C216.026 25.3693 215.737 24.5013 215.158 23.84C214.579 23.158 213.825 22.817 212.895 22.817C211.676 22.817 210.725 23.251 210.043 24.119C209.382 24.987 209.051 26.3303 209.051 28.149V35H204.959V12.68H209.051V20.926C210.291 19.686 211.913 19.066 213.918 19.066Z" fill="white"/>
<path fill-rule="evenodd" clip-rule="evenodd" d="M19.1055 13.1408C17.2169 10.1617 13.8712 8.26732 10.1656 8.46736C4.94501 8.74917 1.12933 13.0859 0.689582 18.3277C0.643929 18.8719 0.620641 19.4224 0.620641 19.9784C0.620641 23.3385 1.47121 26.4999 2.96878 29.2591L5.08058 27.1473C5.08418 27.1499 5.08779 27.1524 5.0914 27.1549L19.1055 13.1408Z" fill="#E00051"/>
<path d="M20.106 39.4628C30.8673 39.4628 39.591 30.7394 39.591 19.9786C39.591 16.4966 38.6776 13.2279 37.0772 10.3991L10.5267 36.9495C13.3555 38.5495 16.6241 39.4628 20.106 39.4628Z" fill="#E00051"/>
</svg>
