<svg width="14" height="14" viewBox="0 0 14 14" fill="none" xmlns="http://www.w3.org/2000/svg">
<path d="M2.12402 10.1167V11.057C2.12402 11.2847 2.30859 11.4693 2.53632 11.4693H11.4641C11.6918 11.4693 11.8763 11.2847 11.8763 11.057V10.1167H2.12402Z" fill="white"/>
<path d="M14 4.87584C14 4.1413 13.4024 3.54369 12.6678 3.54369C11.9333 3.54369 11.3358 4.1413 11.3358 4.87584C11.3358 5.22896 11.4741 5.55025 11.6993 5.78886C11.2988 6.23683 10.7174 6.51956 10.0707 6.51956C9.02397 6.51956 8.14726 5.77957 7.93513 4.79541C8.18005 4.5537 8.33215 4.2182 8.33215 3.84778C8.33215 3.11324 7.73454 2.51562 7 2.51562C6.26546 2.51562 5.66785 3.11324 5.66785 3.84778C5.66785 4.2182 5.82005 4.5537 6.06487 4.79541C5.85274 5.77957 4.97603 6.51956 3.92928 6.51956C3.28264 6.51956 2.70116 6.23683 2.30072 5.78886C2.52588 5.55025 2.66431 5.22896 2.66431 4.87584C2.66431 4.1413 2.0667 3.54369 1.33215 3.54369C0.59761 3.54369 0 4.1413 0 4.87584C0 5.51244 0.448929 6.04585 1.04675 6.1768C1.16499 7.15263 1.39346 8.34155 1.83459 9.29196H12.1654C12.6065 8.34155 12.835 7.15263 12.9532 6.1768C13.5511 6.04575 14 5.51244 14 4.87584Z" fill="white"/>
</svg>
