<svg width="31" height="31" viewBox="0 0 31 31" xmlns="http://www.w3.org/2000/svg">
<path d="M26.7049 10.3371L26.4792 10.3345C23.3308 10.3345 20.4982 12.0947 19.0577 14.8511C18.1515 14.4423 17.169 14.21 16.146 14.21C14.456 14.21 12.8667 14.8126 11.6084 15.8622C11.5841 14.7526 11.4396 13.6475 11.2986 12.6658C11.1778 11.8265 11.0619 11.0121 11.0544 10.334L14.3196 10.3345C14.8368 10.3345 15.3236 10.1327 15.6894 9.76682L18.2727 7.18316C19.0111 6.4447 19.0162 5.26027 18.3114 4.50128C18.5575 4.13227 18.6748 3.69028 18.6297 3.23897C18.5723 2.65929 18.2614 2.14083 17.7764 1.81783L16.2085 0.772669C15.4511 0.267407 14.5687 0 13.6574 0C11.7578 0 9.97229 0.739909 8.62896 2.08342C6.1547 4.5579 4.20779 7.39135 2.84048 10.5055C1.19315 14.2573 0.358108 17.0251 0.358108 18.7314C0.358108 19.7091 0.273586 20.5032 0.10648 21.0924C-0.250498 22.3507 0.311427 23.693 1.47257 24.3566C6.12388 27.0147 11.4141 28.42 16.7711 28.42H17.7051C21.0257 28.42 24.3065 27.8876 27.4568 26.8374L27.909 26.686C29.7575 26.0704 31 24.3465 31 22.3974V14.8616C30.9999 12.4293 29.0732 10.3995 26.7049 10.3371ZM29.7083 22.3974C29.7083 23.7896 28.8209 25.0208 27.4996 25.4611L27.0474 25.6125C24.0302 26.6179 20.8869 27.1282 17.7051 27.1282H16.771C11.6385 27.1282 6.56968 25.7821 2.11327 23.2351C1.4687 22.8667 1.15465 22.1306 1.34888 21.4449C1.5488 20.7416 1.64973 19.8282 1.64973 18.7313C1.64973 17.2263 2.47025 14.5619 4.02361 11.0252C5.32534 8.05805 7.1821 5.35709 9.54211 2.99676C10.6414 1.89734 12.1027 1.2918 13.6573 1.2918C14.3126 1.2918 14.9471 1.48418 15.492 1.8475L17.0599 2.89267C17.222 3.00051 17.3254 3.17333 17.3443 3.36638C17.3639 3.56003 17.2958 3.74926 17.1589 3.88678L15.0959 5.95004C14.8752 6.17082 14.539 6.22507 14.2603 6.08568C14.0496 5.98032 13.9071 5.78666 13.8692 5.55395C13.8314 5.32125 13.9052 5.09223 14.0717 4.92571L14.6652 4.33216C14.9175 4.07983 14.9175 3.67109 14.6652 3.41882C14.4129 3.16649 14.0042 3.16649 13.752 3.41882L13.1585 4.01237C12.695 4.47597 12.4887 5.11373 12.594 5.76147C12.6994 6.40867 13.0961 6.94797 13.6826 7.24129C14.4584 7.6286 15.3949 7.47848 16.0092 6.86344L17.4218 5.45059C17.5964 5.70213 17.5834 6.04596 17.3595 6.26988L14.7762 8.85354C14.6557 8.97405 14.4892 9.04277 14.3195 9.04277L11.3039 9.04229C11.3444 8.97526 11.3833 8.90629 11.436 8.85354C11.6883 8.60121 11.6883 8.19248 11.436 7.94021C11.1837 7.68788 10.7751 7.68788 10.5228 7.94021C9.46643 8.99675 9.72314 10.7825 10.0202 12.8501C10.1741 13.9237 10.3336 15.0339 10.3336 16.1478C10.3336 18.8084 8.32048 19.3748 8.23468 19.3975C7.89157 19.4865 7.68347 19.8353 7.76987 20.1797C7.84301 20.4736 8.10602 20.6691 8.39549 20.6691C8.4472 20.6691 8.50018 20.6628 8.55255 20.6496C9.32584 20.4564 10.5931 19.7141 11.2301 18.1918C11.2389 18.18 11.2532 18.1756 11.2614 18.1631C12.3386 16.4966 14.1644 15.5018 16.146 15.5018C17.6887 15.5018 19.1418 16.0998 20.2373 17.186C20.4908 17.4371 20.9001 17.4358 21.1505 17.1822C21.4015 16.9286 21.4002 16.5199 21.1467 16.2689C20.8479 15.9726 20.5203 15.7171 20.1816 15.4817C21.3955 13.1301 23.8024 11.6264 26.4791 11.6264L26.6702 11.6289C28.3453 11.6731 29.7082 13.1232 29.7082 14.8616V22.3974H29.7083Z" fill="#7CA0B9"/>
</svg>
