<svg width="31" height="31" viewBox="0 0 31 31" fill="none" xmlns="http://www.w3.org/2000/svg">
<g clip-path="url(#clip0)">
<path d="M25.0714 12.8137C25.483 12.8137 25.8166 12.48 25.8166 12.0685C25.8166 11.6569 25.483 11.3232 25.0714 11.3232C24.6598 11.3232 24.3262 11.6569 24.3262 12.0685C24.3262 12.48 24.6598 12.8137 25.0714 12.8137Z" fill="#7CA0B9"/>
<path d="M20.2853 12.8137C20.6968 12.8137 21.0305 12.48 21.0305 12.0685C21.0305 11.6569 20.6968 11.3232 20.2853 11.3232C19.8737 11.3232 19.54 11.6569 19.54 12.0685C19.54 12.48 19.8737 12.8137 20.2853 12.8137Z" fill="#7CA0B9"/>
<path d="M15.5001 12.8137C15.9117 12.8137 16.2453 12.48 16.2453 12.0685C16.2453 11.6569 15.9117 11.3232 15.5001 11.3232C15.0885 11.3232 14.7549 11.6569 14.7549 12.0685C14.7549 12.48 15.0885 12.8137 15.5001 12.8137Z" fill="#7CA0B9"/>
<path d="M10.714 12.8137C11.1255 12.8137 11.4592 12.48 11.4592 12.0685C11.4592 11.6569 11.1255 11.3232 10.714 11.3232C10.3024 11.3232 9.96875 11.6569 9.96875 12.0685C9.96875 12.48 10.3024 12.8137 10.714 12.8137Z" fill="#7CA0B9"/>
<path d="M5.92881 12.8137C6.34037 12.8137 6.67402 12.48 6.67402 12.0685C6.67402 11.6569 6.34037 11.3232 5.92881 11.3232C5.51724 11.3232 5.18359 11.6569 5.18359 12.0685C5.18359 12.48 5.51724 12.8137 5.92881 12.8137Z" fill="#7CA0B9"/>
<path d="M25.0714 17.5998C25.483 17.5998 25.8166 17.2662 25.8166 16.8546C25.8166 16.443 25.483 16.1094 25.0714 16.1094C24.6598 16.1094 24.3262 16.443 24.3262 16.8546C24.3262 17.2662 24.6598 17.5998 25.0714 17.5998Z" fill="#7CA0B9"/>
<path d="M20.2853 17.5998C20.6968 17.5998 21.0305 17.2662 21.0305 16.8546C21.0305 16.443 20.6968 16.1094 20.2853 16.1094C19.8737 16.1094 19.54 16.443 19.54 16.8546C19.54 17.2662 19.8737 17.5998 20.2853 17.5998Z" fill="#7CA0B9"/>
<path d="M15.5001 17.5998C15.9117 17.5998 16.2453 17.2662 16.2453 16.8546C16.2453 16.443 15.9117 16.1094 15.5001 16.1094C15.0885 16.1094 14.7549 16.443 14.7549 16.8546C14.7549 17.2662 15.0885 17.5998 15.5001 17.5998Z" fill="#7CA0B9"/>
<path d="M5.92881 17.5998C6.34037 17.5998 6.67402 17.2662 6.67402 16.8546C6.67402 16.443 6.34037 16.1094 5.92881 16.1094C5.51724 16.1094 5.18359 16.443 5.18359 16.8546C5.18359 17.2662 5.51724 17.5998 5.92881 17.5998Z" fill="#7CA0B9"/>
<path d="M25.0714 22.3859C25.483 22.3859 25.8166 22.0523 25.8166 21.6407C25.8166 21.2291 25.483 20.8955 25.0714 20.8955C24.6598 20.8955 24.3262 21.2291 24.3262 21.6407C24.3262 22.0523 24.6598 22.3859 25.0714 22.3859Z" fill="#7CA0B9"/>
<path d="M20.2853 22.3859C20.6968 22.3859 21.0305 22.0523 21.0305 21.6407C21.0305 21.2291 20.6968 20.8955 20.2853 20.8955C19.8737 20.8955 19.54 21.2291 19.54 21.6407C19.54 22.0523 19.8737 22.3859 20.2853 22.3859Z" fill="#7CA0B9"/>
<path d="M15.5001 22.3859C15.9117 22.3859 16.2453 22.0523 16.2453 21.6407C16.2453 21.2291 15.9117 20.8955 15.5001 20.8955C15.0885 20.8955 14.7549 21.2291 14.7549 21.6407C14.7549 22.0523 15.0885 22.3859 15.5001 22.3859Z" fill="#7CA0B9"/>
<path d="M10.714 22.3859C11.1255 22.3859 11.4592 22.0523 11.4592 21.6407C11.4592 21.2291 11.1255 20.8955 10.714 20.8955C10.3024 20.8955 9.96875 21.2291 9.96875 21.6407C9.96875 22.0523 10.3024 22.3859 10.714 22.3859Z" fill="#7CA0B9"/>
<path d="M5.92881 22.3859C6.34037 22.3859 6.67402 22.0523 6.67402 21.6407C6.67402 21.2291 6.34037 20.8955 5.92881 20.8955C5.51724 20.8955 5.18359 21.2291 5.18359 21.6407C5.18359 22.0523 5.51724 22.3859 5.92881 22.3859Z" fill="#7CA0B9"/>
<path d="M12.9628 13.9653H8.4648C8.11097 13.9653 7.82422 14.2521 7.82422 14.6059V19.104C7.82422 19.4578 8.11097 19.7446 8.4648 19.7446H12.9628C13.3167 19.7446 13.6034 19.4578 13.6034 19.104V14.606C13.6034 14.2521 13.3166 13.9653 12.9628 13.9653ZM12.3222 18.4634H9.10539V15.2466H12.3222V18.4634H12.3222Z" fill="#7CA0B9"/>
<path d="M28.8647 5.39528H24.1597V4.57312C24.1597 4.17999 23.841 3.86133 23.4479 3.86133C23.0549 3.86133 22.7361 4.18005 22.7361 4.57312V5.39528H18.861V4.57312C18.861 4.17999 18.5423 3.86133 18.1492 3.86133C17.7561 3.86133 17.4374 4.18005 17.4374 4.57312V5.39528H13.5625V4.57312C13.5625 4.17999 13.2438 3.86133 12.8507 3.86133C12.4576 3.86133 12.1389 4.18005 12.1389 4.57312V5.39528H8.26386V4.57312C8.26386 4.17999 7.9452 3.86133 7.55207 3.86133C7.15894 3.86133 6.84028 4.18005 6.84028 4.57312V5.39528H2.13519C0.957912 5.39528 0 6.35313 0 7.53053V25.0027C0 26.1801 0.957912 27.138 2.13531 27.138H28.8648C30.0421 27.138 31.0001 26.1801 31.0001 25.0027V7.53053C31 6.35313 30.042 5.39528 28.8647 5.39528ZM28.8647 25.7146H2.13531C1.74284 25.7146 1.42352 25.3952 1.42352 25.0028V7.53053C1.42352 7.13806 1.74284 6.81874 2.13531 6.81874H6.84034V7.64085C6.84034 8.03386 7.159 8.35263 7.55213 8.35263C7.94526 8.35263 8.26392 8.03392 8.26392 7.64085V6.81874H12.139V7.64085C12.139 8.03386 12.4576 8.35263 12.8508 8.35263C13.2439 8.35263 13.5626 8.03392 13.5626 7.64085V6.81874H17.4375V7.64085C17.4375 8.03386 17.7562 8.35263 18.1493 8.35263C18.5423 8.35263 18.8611 8.03392 18.8611 7.64085V6.81874H22.7361V7.64085C22.7361 8.03386 23.0549 8.35263 23.4479 8.35263C23.8411 8.35263 24.1597 8.03392 24.1597 7.64085V6.81874H28.8648C29.2572 6.81874 29.5765 7.13806 29.5765 7.53053V25.0027H29.5766C29.5765 25.3952 29.2572 25.7146 28.8647 25.7146Z" fill="#7CA0B9"/>
</g>
<defs>
<clipPath id="clip0">
<rect width="31" height="31" fill="white"/>
</clipPath>
</defs>
</svg>
