<svg width="26" height="26" viewBox="0 0 26 26" fill="none" xmlns="http://www.w3.org/2000/svg">
<path d="M24.1128 9.67958L22.8448 9.46455C22.7319 9.15034 22.6044 8.84209 22.4634 8.54236L23.21 7.49777C23.8596 6.5851 23.7553 5.35246 22.9644 4.56932L21.4408 3.04549C21.0101 2.61484 20.4393 2.37759 19.8335 2.37759C19.3564 2.37759 18.9001 2.52458 18.5173 2.80011L17.4688 3.54695C17.1444 3.39362 16.8153 3.25813 16.4841 3.1411L16.2744 1.89874C16.0899 0.798416 15.1461 0 14.0301 0H11.8775C10.7617 0 9.81784 0.798416 9.63376 1.89656L9.41338 3.18752C9.10214 3.30118 8.79527 3.43031 8.49475 3.57452L7.46524 2.83304C7.07922 2.55513 6.6212 2.40834 6.14056 2.40834C5.52881 2.40834 4.95772 2.64598 4.53183 3.07762L3.00462 4.59987C2.21593 5.38857 2.11258 6.62021 2.75905 7.52832L3.51779 8.59433C3.37794 8.89525 3.25218 9.2049 3.1411 9.52089L1.89854 9.73056C0.798416 9.91524 0 10.8591 0 11.9749V14.1275C0 15.2433 0.798416 16.1871 1.89656 16.3714L3.18752 16.5916C3.30118 16.903 3.43051 17.2101 3.57452 17.5104L2.83582 18.5379C2.18617 19.4506 2.29051 20.6834 3.08139 21.4664L4.60503 22.9902C5.03568 23.4209 5.60657 23.6581 6.21237 23.6581C6.68944 23.6581 7.14568 23.5111 7.52832 23.2358L8.59433 22.4771C8.87442 22.6072 9.16483 22.7264 9.46297 22.8337L9.67422 24.1015C9.8589 25.2016 10.8027 26 11.9185 26H14.0761C15.1919 26 16.1359 25.2016 16.3202 24.1028L16.5352 22.8347C16.8495 22.7218 17.1577 22.5943 17.4574 22.4532L18.4987 23.1975C18.8847 23.4754 19.3427 23.6224 19.8233 23.6224C20.4289 23.6224 20.9998 23.3852 21.4305 22.9545L22.9541 21.4307C23.743 20.642 23.8462 19.4103 23.1997 18.5022L22.4523 17.4527C22.5971 17.146 22.725 16.838 22.8351 16.5317L24.1013 16.3206C25.2014 16.1359 25.9998 15.1921 25.9998 14.0763V11.928C26.0123 10.8111 25.2196 9.86604 24.1128 9.67958ZM24.4764 14.0763C24.4764 14.4451 24.2125 14.7571 23.8499 14.818L22.1706 15.0979C21.8607 15.1495 21.6108 15.3681 21.5178 15.6686C21.3686 16.152 21.1637 16.6461 20.9092 17.1365C20.7652 17.413 20.7882 17.7425 20.9691 17.996L21.9587 19.3857C22.1722 19.6857 22.1378 20.0927 21.877 20.3536L20.3534 21.8772C20.2084 22.0222 20.0251 22.099 19.8233 22.099C19.6642 22.099 19.5141 22.0514 19.3867 21.9597L18.0029 20.9707C17.7484 20.788 17.4176 20.765 17.1397 20.9104C16.6743 21.154 16.1798 21.3589 15.6698 21.519C15.3722 21.6122 15.155 21.8613 15.1033 22.168L14.818 23.8491C14.7571 24.2127 14.4451 24.4766 14.0761 24.4766H11.9185C11.5496 24.4766 11.2377 24.2127 11.1768 23.8501L10.8969 22.1708C10.8458 21.8629 10.6292 21.6134 10.3316 21.5193C9.82895 21.3607 9.3503 21.1639 8.90854 20.9344C8.78813 20.8719 8.65781 20.8411 8.52808 20.8411C8.36026 20.8411 8.19324 20.8927 8.05022 20.9945L6.64163 21.997C6.51468 22.0885 6.37027 22.1347 6.21237 22.1347C6.01064 22.1347 5.82735 22.0581 5.68234 21.9129L4.15593 20.3867C3.89548 20.1288 3.86235 19.723 4.0748 19.4244L5.05849 18.0561C5.24356 17.7992 5.26617 17.466 5.117 17.1857C4.86687 16.7166 4.65958 16.2246 4.50069 15.7233C4.40666 15.4278 4.15851 15.2118 3.85303 15.1596L2.15067 14.8694C1.78726 14.8083 1.52344 14.4963 1.52344 14.1275V11.9749C1.52344 11.6061 1.78726 11.2941 2.15126 11.233L3.80998 10.9531C4.12003 10.9009 4.36977 10.6817 4.46201 10.3802C4.61852 9.86803 4.81985 9.37271 5.06047 8.90854C5.20369 8.63261 5.18068 8.30392 5.00037 8.05022L4.00021 6.645C3.78658 6.34508 3.82089 5.93803 4.08095 5.67798L5.60974 4.15434L5.6153 4.14859C5.75276 4.00874 5.93922 3.93178 6.14056 3.93178C6.29965 3.93178 6.45001 3.97939 6.57498 4.06944L7.94925 5.05869C8.20653 5.24396 8.54018 5.26617 8.81947 5.117C9.2886 4.86687 9.78055 4.65958 10.2812 4.50089C10.5768 4.40706 10.7928 4.1593 10.8454 3.85303L11.1358 2.15067C11.1967 1.78726 11.5087 1.52344 11.8777 1.52344H14.0303C14.3991 1.52344 14.7111 1.78726 14.7722 2.15126L15.0521 3.81058C15.1044 4.12082 15.324 4.37036 15.6257 4.4624C16.1401 4.61871 16.6531 4.82977 17.1508 5.09003C17.4273 5.23444 17.7568 5.21182 18.0115 5.03072L19.4044 4.0387C19.5311 3.94725 19.6756 3.90103 19.8336 3.90103C20.0352 3.90103 20.2185 3.9776 20.3637 4.1228L21.8899 5.64902C22.1503 5.90689 22.1837 6.31274 21.9698 6.61287L20.9798 7.99805C20.7981 8.25275 20.7755 8.58322 20.9205 8.86014C21.1643 9.3255 21.369 9.82002 21.5293 10.3302C21.6227 10.6278 21.8716 10.8448 22.1783 10.8965L23.8581 11.1816L23.8595 11.1818C24.2219 11.2427 24.4815 11.5502 24.4764 11.913V14.0763Z" fill="#9F9353"/>
<path d="M12.9999 7.94531C10.2125 7.94531 7.94482 10.213 7.94482 13.0004C7.94482 15.7878 10.2125 18.0555 12.9999 18.0555C15.7874 18.0555 18.0551 15.7878 18.0551 13.0004C18.0551 10.213 15.7874 7.94531 12.9999 7.94531ZM12.9999 16.5321C11.0526 16.5321 9.46826 14.9478 9.46826 13.0004C9.46826 11.0531 11.0526 9.46875 12.9999 9.46875C14.9473 9.46875 16.5316 11.0531 16.5316 13.0004C16.5316 14.9478 14.9473 16.5321 12.9999 16.5321Z" fill="#9F9353"/>
</svg>
