<svg width="31" height="31" viewBox="0 0 31 31" fill="none" xmlns="http://www.w3.org/2000/svg">
<path d="M24.8066 11.9334C25.1703 8.90288 25.3273 5.87572 25.3273 2.99666C25.3818 1.96331 24.5636 0.981661 23.4182 0.775015C18.4 -0.258338 13.3818 -0.258338 8.63635 0.775015C7.49089 0.981661 6.67271 1.96337 6.72723 2.99666C6.72723 5.85883 6.93363 8.86746 7.24569 11.8802C5.23539 13.9148 4 16.6438 4 19.6333C4 25.885 9.40001 31 16 31C22.6 31 28 25.885 28 19.6334C28 16.6698 26.786 13.9622 24.8066 11.9334ZM16 8.26666C14.357 8.26666 12.7886 8.5838 11.3592 9.15633C11.228 7.51769 11.1386 5.99264 11.0909 4.54666C12.7818 4.28831 14.4727 4.13331 16 4.13331C17.5273 4.13331 19.1091 4.28831 20.9091 4.59831C20.8621 6.06869 20.7742 7.57794 20.6461 9.15833C19.2152 8.58453 17.6449 8.26666 16 8.26666ZM8.79999 1.80837C13.4363 0.775015 18.2909 0.775015 23.1455 1.80837C23.7455 1.91172 24.2364 2.37672 24.1818 2.94501C24.1818 5.58001 24.0182 8.26666 23.8 11.005C23.2127 10.5415 22.6248 10.1202 21.9587 9.77706C21.8824 9.73534 21.8053 9.69459 21.7279 9.65445C21.891 7.74547 21.9456 5.93936 22.0001 4.13331C22.0001 3.87495 21.7819 3.66831 21.5637 3.61666C19.4909 3.25501 17.7455 3.10001 16 3.10001C14.2545 3.10001 12.3455 3.25501 10.4364 3.61666C10.1636 3.66831 9.99997 3.87501 9.99997 4.13331C9.99997 5.83831 10.1091 7.64666 10.3272 9.60995C9.56358 10.0233 8.90904 10.4366 8.25449 10.9533C7.9818 8.26666 7.81817 5.58001 7.81817 2.89337C7.76364 2.42837 8.25455 1.91166 8.79999 1.80837ZM16 29.9666C9.99997 29.9666 5.09087 25.3166 5.09087 19.6333C5.09087 13.9499 9.99997 9.30001 16 9.30001C17.6711 9.30001 19.2573 9.66111 20.6766 10.3043C20.7228 10.3571 20.7826 10.4026 20.8545 10.4367C21.9454 10.9533 22.9818 11.625 23.8 12.4517C23.8365 12.4862 23.8732 12.5145 23.9117 12.5375C25.767 14.3921 26.9091 16.8924 26.9091 19.6333C26.9091 25.3166 22 29.9666 16 29.9666Z" fill="#528CB3"/>
<path d="M8.41881 20.615C8.41881 20.305 8.14606 20.0984 7.81879 20.15C7.49151 20.2016 7.32788 20.46 7.3824 20.77C7.60056 22.4234 8.36422 24.025 9.61879 25.265C9.7279 25.3683 9.83695 25.42 10.0006 25.42C10.1097 25.42 10.2733 25.3683 10.3279 25.265C10.6006 25.0583 10.6006 24.7484 10.3824 24.5416C9.29152 23.4566 8.63697 22.1134 8.41881 20.615Z" fill="#528CB3"/>
<path d="M15.9998 26.8152C15.0725 26.8152 14.1453 26.6602 13.2725 26.3502C12.9998 26.2469 12.6725 26.4019 12.5635 26.6602C12.4544 26.9186 12.618 27.2286 12.8907 27.3319C13.8725 27.6935 14.9089 27.9002 15.9998 27.9002C16.2726 27.9002 16.5453 27.6419 16.5453 27.3319C16.5453 27.0219 16.3271 26.8152 15.9998 26.8152Z" fill="#528CB3"/>
<path d="M11.4195 25.5752C11.0922 25.5752 10.874 25.7818 10.874 26.0918C10.874 26.4018 11.0922 26.6085 11.4195 26.6085C11.7467 26.6085 11.9649 26.3501 11.9649 26.0918C11.9649 25.7818 11.7467 25.5752 11.4195 25.5752Z" fill="#528CB3"/>
</svg>
