<svg width="31" height="31" viewBox="0 0 31 31" fill="none" xmlns="http://www.w3.org/2000/svg">
<path d="M27.5475 1.88454C27.3301 1.65512 26.9777 1.65493 26.7602 1.88454L20.9883 7.97971C20.7708 8.20932 20.7708 8.58145 20.9883 8.81112C21.097 8.92589 21.2394 8.98325 21.3819 8.98325C21.5243 8.98325 21.6669 8.92589 21.7756 8.81112L27.5475 2.71595C27.7648 2.48628 27.7648 2.11408 27.5475 1.88454Z" fill="#7CA0B9"/>
<path d="M29.1167 3.51586C28.8992 3.28638 28.5468 3.28638 28.3294 3.51586L22.5576 9.61116C22.3402 9.84083 22.3402 10.213 22.5575 10.4426C22.6662 10.5573 22.8088 10.6147 22.9512 10.6147C23.0936 10.6147 23.2361 10.5573 23.3449 10.4426L29.1167 4.34721C29.3341 4.1176 29.3341 3.74541 29.1167 3.51586Z" fill="#7CA0B9"/>
<path d="M23.6725 13.8089L30.8375 6.24232C31.0549 6.01265 31.0549 5.64051 30.8375 5.4109C30.62 5.18149 30.2676 5.1813 30.0502 5.4109L22.8853 12.9775C22.0026 13.9096 20.6529 14.1542 19.5268 13.5862C19.3028 13.4733 19.0353 13.5304 18.8705 13.7265L16.436 16.6232C16.435 16.6242 16.4339 16.6252 16.433 16.6263C16.432 16.6275 16.4313 16.6287 16.4303 16.6299L5.90794 29.1492C5.90527 29.1524 5.90261 29.1556 5.90001 29.1589C5.86531 29.2019 5.83256 29.2397 5.79938 29.2748C5.1046 30.0085 3.97419 30.0084 3.27972 29.2748C2.9432 28.9195 2.75787 28.4469 2.75787 27.9443C2.75787 27.4418 2.9432 26.9693 3.28033 26.6132C3.31266 26.5789 3.34838 26.5444 3.38949 26.5075C3.39264 26.5047 3.39567 26.5019 3.39869 26.4991L9.97699 20.3331C10.2069 20.1175 10.2278 19.746 10.0238 19.5032C9.81969 19.2603 9.46779 19.2381 9.23795 19.4538L2.66402 25.6157C2.60117 25.6723 2.54492 25.7271 2.49249 25.7825C1.94569 26.36 1.64453 27.1277 1.64453 27.9443C1.64453 28.7609 1.94563 29.5287 2.49243 30.1062C3.05691 30.7022 3.79818 31.0002 4.53964 31.0001C5.28079 31.0001 6.02225 30.7022 6.58631 30.1065C6.63977 30.0502 6.69154 29.9907 6.7447 29.925L14.763 20.3847L22.7815 29.9251C22.8346 29.9909 22.8864 30.0504 22.9395 30.1063C23.5038 30.7023 24.2452 31.0002 24.9865 31.0002C25.7279 31.0002 26.4693 30.7022 27.0337 30.1062C28.1623 28.9142 28.1623 26.9748 27.034 25.783C26.9807 25.7266 26.9244 25.6719 26.8622 25.6158L17.6354 16.9673L19.4406 14.8194C20.9032 15.3667 22.5582 14.9854 23.6725 13.8089ZM26.1274 26.4992C26.1304 26.502 26.1335 26.5048 26.1366 26.5075C26.1773 26.5442 26.2131 26.5788 26.2464 26.6138C26.941 27.3475 26.941 28.5412 26.2464 29.2747C25.5516 30.0083 24.4213 30.0083 23.7263 29.2744C23.6935 29.2397 23.6606 29.2018 23.6259 29.1588C23.6233 29.1555 23.6206 29.1522 23.618 29.149L15.5073 19.4991L16.8962 17.8465L26.1274 26.4992Z" fill="#7CA0B9"/>
<path d="M25.8764 0.172111C25.659 -0.0573704 25.3066 -0.0573704 25.0892 0.172111L17.9243 7.73874C16.8099 8.91549 16.449 10.663 16.9672 12.208L14.7624 14.2746L12.6434 12.2884C13.7392 10.0114 13.3392 7.24665 11.6006 5.41061C9.87397 3.58716 7.87399 2.30394 5.96913 1.79747C3.98059 1.26888 2.27571 1.62176 1.16806 2.79142C0.0604194 3.96108 -0.273799 5.76177 0.226863 7.86163C0.706515 9.87313 1.92157 11.9852 3.64837 13.8086C5.38691 15.6447 8.00483 16.0672 10.1611 14.9098C10.1611 14.9098 12.2334 17.3752 12.2596 17.4066C12.3697 17.5375 12.5225 17.6041 12.6762 17.6041C12.8077 17.6041 12.9395 17.5553 13.0455 17.4559L18.0023 12.8098C18.1878 12.6358 18.2419 12.3532 18.135 12.1167C17.5971 10.9274 17.8288 9.50215 18.7115 8.57009L25.8764 1.00353C26.0939 0.773853 26.0939 0.401721 25.8764 0.172111ZM12.7228 16.1865L10.6964 13.7756C10.5169 13.5621 10.2179 13.5154 9.98786 13.6655C8.20306 14.8277 5.91984 14.5449 4.43547 12.9773C2.8489 11.3019 1.73769 9.38322 1.30641 7.57454C0.90529 5.89182 1.13573 4.48833 1.95535 3.62284C2.77486 2.75722 4.10386 2.51399 5.69721 2.93766C7.4099 3.39304 9.22685 4.56647 10.8133 6.24196C12.2977 7.80946 12.5655 10.2206 11.4649 12.1055C11.323 12.3485 11.367 12.6641 11.5692 12.8537L13.9237 15.0607L12.7228 16.1865Z" fill="#7CA0B9"/>
</svg>
