<svg width="31" height="31" viewBox="0 0 31 31" fill="none" xmlns="http://www.w3.org/2000/svg">
<path d="M30.3541 29.7085H0.645852C0.289353 29.7085 0 29.9978 0 30.3543C0 30.7108 0.289353 31.0001 0.645852 31.0001H30.3542C30.7106 31.0001 31 30.7108 31 30.3543C30.9999 29.9978 30.7106 29.7085 30.3541 29.7085Z" fill="#7CA0B9" fill-opacity="0.65"/>
<path d="M5.81284 21.9585H1.93784C1.58135 21.9585 1.29199 22.2479 1.29199 22.6043V30.3543C1.29199 30.7108 1.58135 31.0001 1.93784 31.0001H5.81284C6.16934 31.0001 6.45869 30.7108 6.45869 30.3543V22.6043C6.45869 22.2478 6.16934 21.9585 5.81284 21.9585ZM5.16698 29.7085H2.5837V23.2501H5.16705V29.7085H5.16698Z" fill="#7CA0B9" fill-opacity="0.65"/>
<path d="M13.5628 15.5H9.68784C9.33135 15.5 9.04199 15.7894 9.04199 16.1459V30.3542C9.04199 30.7107 9.33135 31 9.68784 31H13.5628C13.9193 31 14.2087 30.7107 14.2087 30.3542V16.1459C14.2087 15.7894 13.9193 15.5 13.5628 15.5ZM12.917 29.7083H10.3336V16.7916H12.917V29.7083Z" fill="#7CA0B9" fill-opacity="0.65"/>
<path d="M21.3128 18.0835H17.4378C17.0813 18.0835 16.792 18.3729 16.792 18.7293V30.3543C16.792 30.7108 17.0813 31.0002 17.4378 31.0002H21.3128C21.6693 31.0002 21.9587 30.7108 21.9587 30.3543V18.7293C21.9587 18.3728 21.6693 18.0835 21.3128 18.0835ZM20.667 29.7085H18.0836V19.3751H20.667V29.7085V29.7085Z" fill="#7CA0B9" fill-opacity="0.65"/>
<path d="M29.0628 10.3335H25.1878C24.8313 10.3335 24.542 10.6228 24.542 10.9793V30.3543C24.542 30.7108 24.8313 31.0002 25.1878 31.0002H29.0628C29.4193 31.0002 29.7087 30.7108 29.7087 30.3543V10.9793C29.7087 10.6228 29.4193 10.3335 29.0628 10.3335ZM28.417 29.7085H25.8336V11.6251H28.417V29.7085V29.7085Z" fill="#7CA0B9" fill-opacity="0.65"/>
<path d="M3.87534 11.625C2.45061 11.625 1.29199 12.7836 1.29199 14.2083C1.29199 15.6331 2.45061 16.7917 3.87534 16.7917C5.30007 16.7917 6.45869 15.6331 6.45869 14.2083C6.45869 12.7836 5.30007 11.625 3.87534 11.625ZM3.87534 15.5C3.16234 15.5 2.5837 14.92 2.5837 14.2083C2.5837 13.4966 3.16234 12.9167 3.87534 12.9167C4.58834 12.9167 5.16698 13.4967 5.16698 14.2083C5.16698 14.92 4.58834 15.5 3.87534 15.5Z" fill="#7CA0B9" fill-opacity="0.65"/>
<path d="M11.6253 5.1665C10.2006 5.1665 9.04199 6.32513 9.04199 7.74985C9.04199 9.17458 10.2006 10.3332 11.6253 10.3332C13.0501 10.3332 14.2087 9.17458 14.2087 7.74985C14.2087 6.32513 13.0501 5.1665 11.6253 5.1665ZM11.6253 9.0415C10.9123 9.0415 10.3337 8.46152 10.3337 7.74985C10.3337 7.03813 10.9123 6.45821 11.6253 6.45821C12.3383 6.45821 12.917 7.03819 12.917 7.74985C12.917 8.46158 12.3383 9.0415 11.6253 9.0415Z" fill="#7CA0B9" fill-opacity="0.65"/>
<path d="M19.3753 7.75C17.9506 7.75 16.792 8.90862 16.792 10.3333C16.792 11.7581 17.9506 12.9167 19.3753 12.9167C20.8001 12.9167 21.9587 11.7581 21.9587 10.3333C21.9587 8.90862 20.8001 7.75 19.3753 7.75ZM19.3753 11.625C18.6623 11.625 18.0837 11.045 18.0837 10.3333C18.0837 9.62162 18.6623 9.0417 19.3753 9.0417C20.0883 9.0417 20.667 9.62168 20.667 10.3333C20.667 11.045 20.0883 11.625 19.3753 11.625Z" fill="#7CA0B9" fill-opacity="0.65"/>
<path d="M27.1253 0C25.7006 0 24.542 1.15862 24.542 2.58335C24.542 4.00807 25.7006 5.1667 27.1253 5.1667C28.5501 5.1667 29.7087 4.00807 29.7087 2.58335C29.7087 1.15862 28.5501 0 27.1253 0ZM27.1253 3.87499C26.4123 3.87499 25.8337 3.29502 25.8337 2.58335C25.8337 1.87162 26.4123 1.2917 27.1253 1.2917C27.8383 1.2917 28.417 1.87168 28.417 2.58335C28.417 3.29502 27.8383 3.87499 27.1253 3.87499Z" fill="#7CA0B9" fill-opacity="0.65"/>
<path d="M26.2124 3.49506C25.9605 3.24318 25.551 3.24318 25.2992 3.49506L20.2875 8.5067C20.0357 8.75857 20.0357 9.16805 20.2875 9.41992C20.4141 9.54519 20.5794 9.60852 20.7448 9.60852C20.9088 9.60852 21.0742 9.54652 21.2008 9.41992L26.2124 4.40828C26.4643 4.15641 26.4643 3.74693 26.2124 3.49506Z" fill="#7CA0B9" fill-opacity="0.65"/>
<path d="M17.8127 8.84292L13.6638 7.65977C13.3164 7.55902 12.9637 7.76052 12.8669 8.10412C12.7687 8.44773 12.9676 8.80423 13.3099 8.90237L17.4587 10.0855C17.5181 10.1023 17.5776 10.11 17.6357 10.11C17.9173 10.11 18.1756 9.92531 18.257 9.64116C18.3552 9.29889 18.1563 8.94106 17.8127 8.84292Z" fill="#7CA0B9" fill-opacity="0.65"/>
<path d="M10.6175 8.55478C10.3954 8.27578 9.98979 8.23055 9.71079 8.45143L4.8412 12.3342C4.5622 12.5576 4.5157 12.9632 4.73918 13.2422C4.86705 13.4023 5.05565 13.485 5.2442 13.485C5.38497 13.485 5.52707 13.4385 5.64592 13.3455L10.5155 9.4628C10.7945 9.23932 10.841 8.83378 10.6175 8.55478Z" fill="#7CA0B9" fill-opacity="0.65"/>
</svg>
