<svg width="14" height="14" viewBox="0 0 14 14" fill="none" xmlns="http://www.w3.org/2000/svg">
<path d="M13.7556 4.30061L12.598 3.14293L13.4682 2.27299C13.5452 2.19612 13.5884 2.09197 13.5884 1.98303C13.5884 1.8741 13.5452 1.76994 13.4683 1.69305L12.3031 0.527879C12.1493 0.37407 11.8769 0.37407 11.7231 0.527879L10.8531 1.39815L9.6953 0.24025C9.37497 -0.0800832 8.85557 -0.0800832 8.53521 0.24025C8.21483 0.560582 8.21483 1.07998 8.53521 1.40034L12.5955 5.4607C12.9159 5.78103 13.4353 5.78103 13.7556 5.4607C14.076 5.14037 14.076 4.62097 13.7556 4.30061Z" fill="white"/>
<path d="M5.46556 12.5994L1.40525 8.53908C1.08486 8.21875 0.56552 8.21875 0.245132 8.53908C-0.0752004 8.85946 -0.0752004 9.37886 0.245132 9.69919L1.40301 10.8571L0.53443 11.7253C0.457512 11.8022 0.414254 11.9063 0.414254 12.0153C0.414254 12.1242 0.457512 12.2284 0.53443 12.3052L1.6996 13.47C1.77969 13.5502 1.88464 13.5902 1.98959 13.5902C2.09453 13.5902 2.19948 13.5502 2.27957 13.4701L3.14779 12.6018L4.30547 13.7595C4.6258 14.0799 5.1452 14.0799 5.46556 13.7595C5.78594 13.4392 5.78594 12.9198 5.46556 12.5994Z" fill="white"/>
<path d="M7.37486 4.88037L4.88477 7.37894L6.62493 9.1191L9.11502 6.62048L7.37486 4.88037Z" fill="white"/>
<path d="M12.5954 6.62086L7.37499 1.40041C7.05465 1.08007 6.53523 1.08007 6.2149 1.40041C5.89451 1.72079 5.89451 2.24013 6.2149 2.56052L11.4353 7.78097C11.7557 8.10131 12.2751 8.10131 12.5954 7.78097C12.9158 7.46064 12.9158 6.94125 12.5954 6.62086Z" fill="white"/>
<path d="M7.7849 11.4397L2.56442 6.21925C2.24408 5.89892 1.72469 5.89892 1.40435 6.21925C1.08397 6.53964 1.08397 7.05903 1.40435 7.37937L6.62481 12.5998C6.94515 12.9201 7.46454 12.9201 7.7849 12.5998C8.10529 12.2795 8.10529 11.7601 7.7849 11.4397Z" fill="white"/>
</svg>
