<svg width="24" height="24" viewBox="0 0 24 24" fill="none" xmlns="http://www.w3.org/2000/svg">
<g clip-path="url(#clip0)">
<path d="M5.5664 14.4108L4.76193 17.414L1.82163 17.4762C0.942912 15.8464 0.444489 13.9816 0.444489 12C0.444489 10.0838 0.910502 8.27683 1.73654 6.68573H1.73718L4.35487 7.16565L5.50158 9.76763C5.26157 10.4673 5.13076 11.2184 5.13076 12C5.13085 12.8483 5.28451 13.661 5.5664 14.4108Z" fill="#FBBB00"/>
<path d="M23.3537 9.84131C23.4864 10.5403 23.5556 11.2622 23.5556 12C23.5556 12.8273 23.4686 13.6343 23.3029 14.4127C22.7404 17.0616 21.2705 19.3746 19.2344 21.0115L19.2337 21.0108L15.9366 20.8426L15.47 17.9296C16.8211 17.1372 17.877 15.8972 18.4332 14.4127H12.2541V9.84131H18.5233H23.3537Z" fill="#518EF8"/>
<path d="M19.2337 21.0108L19.2343 21.0114C17.254 22.6032 14.7384 23.5556 12 23.5556C7.5994 23.5556 3.77339 21.0959 1.82162 17.4762L5.56639 14.4108C6.54225 17.0153 9.05464 18.8692 12 18.8692C13.2661 18.8692 14.4521 18.527 15.4699 17.9295L19.2337 21.0108Z" fill="#28B446"/>
<path d="M19.3759 3.10476L15.6324 6.16951C14.5791 5.51112 13.334 5.13078 12 5.13078C8.98797 5.13078 6.42859 7.06981 5.50162 9.76762L1.73717 6.68572H1.73654C3.65973 2.97779 7.534 0.444458 12 0.444458C14.8038 0.444458 17.3746 1.4432 19.3759 3.10476Z" fill="#F14336"/>
</g>
<defs>
<clipPath id="clip0">
<rect width="23.1111" height="23.1111" fill="white" transform="translate(0.444489 0.444458)"/>
</clipPath>
</defs>
</svg>
