<svg width="24" height="24" viewBox="0 0 24 24" fill="none" xmlns="http://www.w3.org/2000/svg">
<g clip-path="url(#clip0)">
<path d="M23.2778 4.83267C22.4275 5.21015 21.5137 5.46438 20.5545 5.57897C21.5339 4.99252 22.2859 4.06327 22.6394 2.95586C21.7236 3.49897 20.7086 3.89378 19.6282 4.1066C18.7644 3.18504 17.5308 2.60919 16.1673 2.60919C13.106 2.60919 10.8565 5.46534 11.5479 8.4303C7.60846 8.23289 4.11484 6.34549 1.7758 3.47682C0.533576 5.60786 1.13158 8.39563 3.24239 9.80734C2.46624 9.7823 1.73439 9.56949 1.09595 9.21415C1.04395 11.4107 2.61839 13.4656 4.89869 13.923C4.23135 14.1041 3.50046 14.1464 2.75706 14.0039C3.35987 15.8875 5.11054 17.2578 7.18669 17.2963C5.19335 18.8592 2.68195 19.5573 0.166687 19.2607C2.26498 20.606 4.75809 21.3908 7.43513 21.3908C16.2385 21.3908 21.2122 13.9558 20.9118 7.28726C21.8382 6.61801 22.6422 5.78312 23.2778 4.83267Z" fill="white"/>
</g>
<defs>
<clipPath id="clip0">
<rect width="23.1111" height="23.1111" fill="white" transform="translate(0.166687 0.444458)"/>
</clipPath>
</defs>
</svg>
