<svg width="24" height="24" viewBox="0 0 24 24" fill="none" xmlns="http://www.w3.org/2000/svg">
<g clip-path="url(#clip0)">
<path d="M13.3968 18.735C13.9832 18.735 14.223 18.344 14.2163 17.8539C14.1864 16.0079 14.9038 15.0141 16.199 16.3093C17.6319 17.7422 17.9285 18.735 19.6686 18.735H22.75C23.5281 18.735 23.8343 18.4846 23.8343 18.0917C23.8343 17.2607 22.466 15.7941 21.3066 14.7175C19.683 13.2105 19.6069 13.1748 21.0051 11.3606C22.7394 9.10824 25.0082 6.22224 23.0014 6.22224H19.1678C18.4244 6.22224 18.3705 6.64113 18.1057 7.26513C17.1475 9.5252 15.3266 12.4526 14.6351 12.0048C13.912 11.5378 14.2432 9.68794 14.2981 6.93868C14.3126 6.21261 14.3087 5.71476 13.1994 5.45668C12.5937 5.31706 12.0043 5.25928 11.4574 5.25928C9.26856 5.25928 7.75863 6.17698 8.61663 6.33683C10.1294 6.61898 9.98404 9.89209 9.63159 11.3057C9.01722 13.7671 6.70804 9.35668 5.74604 7.16017C5.51396 6.63246 5.4427 6.22224 4.61456 6.22224H1.48011C1.00633 6.22224 0.72226 6.37631 0.72226 6.71913C0.72226 7.29883 3.57263 13.1902 6.29396 16.1273C8.94789 18.9921 11.571 18.735 13.3968 18.735Z" fill="white"/>
</g>
<defs>
<clipPath id="clip0">
<rect width="23.1111" height="23.1111" fill="white" transform="translate(0.72226 0.444458)"/>
</clipPath>
</defs>
</svg>
