<?xml version="1.0" standalone="no"?>
<!DOCTYPE svg PUBLIC "-//W3C//DTD SVG 20010904//EN"
 "http://www.w3.org/TR/2001/REC-SVG-20010904/DTD/svg10.dtd">
<svg version="1.0" xmlns="http://www.w3.org/2000/svg"
 width="304.000000pt" height="304.000000pt" viewBox="0 0 304.000000 304.000000"
 preserveAspectRatio="xMidYMid meet">
<metadata>
Created by potrace 1.11, written by Peter Selinger 2001-2013
</metadata>
<g transform="translate(0.000000,304.000000) scale(0.100000,-0.100000)"
fill="#000000" stroke="none">
<path d="M1274 3019 c-556 -92 -1014 -482 -1194 -1015 -55 -161 -74 -282 -74
-469 -1 -172 5 -239 30 -345 3 -14 8 -36 10 -49 3 -13 18 -60 33 -105 173
-497 564 -859 1071 -990 30 -8 75 -17 100 -21 25 -4 65 -10 90 -15 49 -9 370
-7 385 2 6 3 34 9 64 13 30 4 65 11 78 16 13 5 23 7 23 4 0 -12 243 82 327
126 416 217 696 590 794 1056 29 139 33 431 6 558 -9 44 -19 91 -21 104 -3 14
-18 61 -32 105 -177 530 -629 924 -1175 1022 -139 25 -377 26 -515 3z"/>
</g>
</svg>
